<svg xmlns="http://www.w3.org/2000/svg" viewBox="0 0 231.69 257.16"><defs><style>.cls-1{fill:#323032;}.cls-2{fill:#221f1f;}.cls-3{fill:#c2c5c0;}.cls-4{fill:#ed212d;}.cls-5{fill:#f27123;}.cls-6{fill:#007f36;}</style></defs><title>Ativo 1</title><g id="Camada_2" data-name="Camada 2"><g id="Sessoes_da_Pagina" data-name="Sessoes da Pagina"><g id="Home"><g id="Logo"><path class="cls-1" d="M19.34,227.59l1.06-20.1a6.34,6.34,0,0,0-.53-3.68q-.63-.92-2.9-1.06l0-1.45h9.13l0,1.45a3.8,3.8,0,0,0-2.8,1.06,7.68,7.68,0,0,0-.82,3.68l-1.4,26.73H17.84L7.25,204.83,6,228a11.33,11.33,0,0,0,0,2.27,3,3,0,0,0,.51,1.4,2.16,2.16,0,0,0,1.09.77,6.22,6.22,0,0,0,1.76.29l0,1.45h-9l0-1.45A5.52,5.52,0,0,0,2,232.47a2.18,2.18,0,0,0,1-.77,3.75,3.75,0,0,0,.58-1.4A16,16,0,0,0,3.92,228l1.16-21.56,0-1.06a4.47,4.47,0,0,0-.73-1.84,3.52,3.52,0,0,0-2.46-.82l0-1.45h8.26q2.27,6.77,4.59,13.15T19.34,227.59Z"/><path class="cls-1" d="M50,217.78a20.64,20.64,0,0,1-4,11.84q-3.57,4.74-8.54,4.74t-8.08-4.74a16,16,0,0,1-2.23-5.36,24,24,0,0,1-.46-6.48,20.67,20.67,0,0,1,3.95-11.84q3.53-4.78,8.54-4.78t8.08,4.78Q50.4,210.63,50,217.78Zm-4.27,0a34.21,34.21,0,0,0-.21-5.89,16.51,16.51,0,0,0-1.18-4.53,7.14,7.14,0,0,0-2.16-2.88,5,5,0,0,0-3.09-1,5.51,5.51,0,0,0-3.2,1,8.36,8.36,0,0,0-2.48,2.88,17.75,17.75,0,0,0-1.67,4.53,31.43,31.43,0,0,0-.77,5.89q-.37,6.6,1.35,10.4T37.59,232q3.48,0,5.66-3.85A24.65,24.65,0,0,0,45.76,217.78Z"/><path class="cls-1" d="M66.12,202.75l0-1.45H76l0,1.45a4.89,4.89,0,0,0-3,1.3,10.66,10.66,0,0,0-1.84,3.58l-8.84,26.58H60l-6.38-27.5a10.49,10.49,0,0,0-.63-1.88,4.1,4.1,0,0,0-.77-1.16,2.59,2.59,0,0,0-1-.63,7.42,7.42,0,0,0-1.31-.29l0-1.45H61l0,1.45c-1.51.1-2.5.43-2.95,1a2.52,2.52,0,0,0-.34,1.11,9.53,9.53,0,0,0,.19,1.88l4.54,22.33,6.48-21.22a9,9,0,0,0,.53-2.27,2.08,2.08,0,0,0-.34-1.55Q68.34,202.84,66.12,202.75Z"/><path class="cls-1" d="M94,232.76l0,1.45H83.47l0-1.45a4.36,4.36,0,0,0,2.32-.92,2.09,2.09,0,0,0,.72-1.55,4.23,4.23,0,0,0-.14-1.35l-1.21-7H76.85l-1.35,5.17c-.16.55-.29,1-.39,1.5a10,10,0,0,0-.19,1.21,2.1,2.1,0,0,0,.48,1.79,4.64,4.64,0,0,0,2.71,1.11l0,1.45h-10l0-1.45a4.67,4.67,0,0,0,3.14-1.93q.48-.73,1-1.72a11.8,11.8,0,0,0,.92-2.34L81.1,201.3h3.43l5.8,27.21a6.71,6.71,0,0,0,1.43,3.21A3.11,3.11,0,0,0,94,232.76Zm-9.28-13-2.95-14.4-4.35,14.4Z"/><path class="cls-1" d="M115,228.11a13.25,13.25,0,0,0,0,2.29,3.27,3.27,0,0,0,.44,1.41,2,2,0,0,0,.93.78,4.65,4.65,0,0,0,1.56.29l0,1.46H107.75l0-1.46a3.33,3.33,0,0,0,2.63-1.07,7.74,7.74,0,0,0,.83-3.7l1.12-20.71a19.93,19.93,0,0,0,0-2.27,3.16,3.16,0,0,0-.41-1.44,1.82,1.82,0,0,0-1-.75,6.66,6.66,0,0,0-1.58-.32l0-1.46h10.14l0,1.46a6.66,6.66,0,0,0-1.59.32,2.07,2.07,0,0,0-1,.75,3.78,3.78,0,0,0-.59,1.44,13.3,13.3,0,0,0-.24,2.27Z"/><path class="cls-1" d="M135.09,228.11a10.29,10.29,0,0,0,0,2.29,3.28,3.28,0,0,0,.54,1.41,2.18,2.18,0,0,0,1.15.78,7.22,7.22,0,0,0,1.92.29l-.05,1.46H127.15l.05-1.46q2.39-.14,3.17-1.07a6.51,6.51,0,0,0,1-3.7l1.22-23.06.1-.83a1.47,1.47,0,0,0-.1-.83c-.13-.23-.46-.34-1-.34a7.39,7.39,0,0,0-4.44,1.59,15,15,0,0,0-4.09,5.68l-1.22-.59,2.48-8.58h20.57l1.66,8.58-1.22.59q-1.56-4.1-3.58-5.68a6.81,6.81,0,0,0-4.26-1.59,1.29,1.29,0,0,0-1,.34,3.14,3.14,0,0,0-.2.73v.44a2.46,2.46,0,0,0,.05.49Z"/><path class="cls-1" d="M168.63,232.89l0,1.46H158l0-1.46a4.4,4.4,0,0,0,2.34-.93,2.11,2.11,0,0,0,.73-1.56A4.23,4.23,0,0,0,161,229l-1.22-7h-8.43L150,227.24c-.16.55-.29,1.06-.39,1.51a9.58,9.58,0,0,0-.19,1.22,2.11,2.11,0,0,0,.49,1.81,4.68,4.68,0,0,0,2.73,1.12l0,1.46H142.5l.05-1.46a4.71,4.71,0,0,0,3.17-1.95c.32-.49.66-1.06,1-1.73a12,12,0,0,0,.93-2.36l8-25.69h3.46L165,228.6a6.77,6.77,0,0,0,1.44,3.24A3.13,3.13,0,0,0,168.63,232.89Zm-9.36-13.06-3-14.53-4.39,14.53Z"/><path class="cls-1" d="M176.42,207.4l-1.07,20.13q-.15,2.93.54,3.95a2.77,2.77,0,0,0,2.49,1h-1.17a10,10,0,0,0,6.43-2.58,22.36,22.36,0,0,0,5.21-6.53l1.07.58-3.56,10.38H168.09l0-1.46a5,5,0,0,0,1.56-.29,2.23,2.23,0,0,0,1-.78,3.53,3.53,0,0,0,.56-1.41,19.75,19.75,0,0,0,.27-2.29l1.12-20.71a20.29,20.29,0,0,0,0-2.27,3.16,3.16,0,0,0-.42-1.44,1.82,1.82,0,0,0-.95-.75,6.59,6.59,0,0,0-1.54-.32l0-1.46h10.58l-.05,1.46a8.78,8.78,0,0,0-1.83.32,2.32,2.32,0,0,0-1.15.75,3.58,3.58,0,0,0-.66,1.44A11.38,11.38,0,0,0,176.42,207.4Z"/><path class="cls-1" d="M198.4,228.11a13.21,13.21,0,0,0,0,2.29,3.27,3.27,0,0,0,.44,1.41,2,2,0,0,0,.92.78,4.65,4.65,0,0,0,1.56.29l0,1.46H191.14l0-1.46a3.32,3.32,0,0,0,2.63-1.07,7.72,7.72,0,0,0,.83-3.7l1.12-20.71a19.61,19.61,0,0,0,0-2.27,3.16,3.16,0,0,0-.41-1.44,1.83,1.83,0,0,0-1-.75,6.64,6.64,0,0,0-1.58-.32l0-1.46H203l0,1.46a6.68,6.68,0,0,0-1.59.32,2.07,2.07,0,0,0-1,.75,3.77,3.77,0,0,0-.59,1.44,13.17,13.17,0,0,0-.24,2.27Z"/><path class="cls-1" d="M231.69,232.89l0,1.46H221.12l0-1.46a4.39,4.39,0,0,0,2.34-.93,2.11,2.11,0,0,0,.73-1.56,4.22,4.22,0,0,0-.15-1.37l-1.22-7h-8.43l-1.37,5.21q-.24.83-.39,1.51a9.8,9.8,0,0,0-.19,1.22,2.11,2.11,0,0,0,.49,1.81,4.68,4.68,0,0,0,2.73,1.12l0,1.46H205.57l.05-1.46a4.72,4.72,0,0,0,3.17-1.95c.32-.49.66-1.06,1-1.73a12,12,0,0,0,.93-2.36l8-25.69h3.46L228,228.6a6.77,6.77,0,0,0,1.44,3.24A3.13,3.13,0,0,0,231.69,232.89Zm-9.36-13.06-3-14.53L215,219.83Z"/><path class="cls-2" d="M156.77,199.4q.19-.63.45-1.35t.55-1.59a4.41,4.41,0,0,1,1.06-2q.76-.41,1.29.66l0,.13a1.36,1.36,0,0,1-.17,1.63,13.27,13.27,0,0,1-1.38,1.45q-.79.73-1.55,1.48Z"/><path class="cls-3" d="M73.44,255.42c0,.09,0,.17,0,.24a.94.94,0,0,1,0,.18.57.57,0,0,1-.05.14.73.73,0,0,1-.12.14,2.55,2.55,0,0,1-.35.26,4.4,4.4,0,0,1-.67.34,5.65,5.65,0,0,1-.92.28,5.21,5.21,0,0,1-1.14.11,5,5,0,0,1-1.92-.35,3.89,3.89,0,0,1-1.46-1,4.78,4.78,0,0,1-.93-1.71,8.59,8.59,0,0,1,0-4.77,5.27,5.27,0,0,1,1-1.8,4.2,4.2,0,0,1,1.52-1.13,5,5,0,0,1,2.88-.3,6.21,6.21,0,0,1,.83.22,3.71,3.71,0,0,1,.68.31,2.41,2.41,0,0,1,.41.29,1.05,1.05,0,0,1,.15.17.57.57,0,0,1,.06.14,1.4,1.4,0,0,1,0,.19,2.41,2.41,0,0,1,0,.26,2.14,2.14,0,0,1,0,.29.85.85,0,0,1-.05.2.29.29,0,0,1-.08.12.17.17,0,0,1-.11,0,.64.64,0,0,1-.33-.16,5.29,5.29,0,0,0-.55-.37,4.41,4.41,0,0,0-.82-.36,3.52,3.52,0,0,0-1.15-.17,3,3,0,0,0-1.33.29,2.83,2.83,0,0,0-1,.86,4.2,4.2,0,0,0-.66,1.38,7.59,7.59,0,0,0,0,3.7,3.86,3.86,0,0,0,.65,1.34,2.72,2.72,0,0,0,1,.81,3.36,3.36,0,0,0,1.39.27,3.68,3.68,0,0,0,1.14-.16,4.37,4.37,0,0,0,.83-.36,6.66,6.66,0,0,0,.56-.36.68.68,0,0,1,.35-.16.19.19,0,0,1,.1,0,.17.17,0,0,1,.07.1.87.87,0,0,1,0,.2C73.44,255.19,73.44,255.29,73.44,255.42Z"/><path class="cls-3" d="M84.62,251.37a8.46,8.46,0,0,1-.31,2.39,5,5,0,0,1-.93,1.81,4.1,4.1,0,0,1-1.56,1.15,5.54,5.54,0,0,1-2.19.4,5.66,5.66,0,0,1-2.13-.37A3.77,3.77,0,0,1,76,255.69a4.58,4.58,0,0,1-.87-1.74,9,9,0,0,1-.29-2.39,8.25,8.25,0,0,1,.31-2.35,4.89,4.89,0,0,1,.94-1.79,4.16,4.16,0,0,1,1.56-1.14,6.22,6.22,0,0,1,4.29,0,3.78,3.78,0,0,1,1.49,1.06,4.48,4.48,0,0,1,.89,1.72A8.61,8.61,0,0,1,84.62,251.37Zm-1.54.1a8.51,8.51,0,0,0-.16-1.73,4,4,0,0,0-.55-1.39,2.64,2.64,0,0,0-1-.92,3.44,3.44,0,0,0-1.59-.33,3.24,3.24,0,0,0-1.59.35,3,3,0,0,0-1,.95,3.92,3.92,0,0,0-.57,1.38,7.71,7.71,0,0,0-.17,1.66,9.13,9.13,0,0,0,.16,1.77,4,4,0,0,0,.54,1.4,2.61,2.61,0,0,0,1,.91,3.51,3.51,0,0,0,1.6.32,3.31,3.31,0,0,0,1.6-.36,2.88,2.88,0,0,0,1-1,4.06,4.06,0,0,0,.57-1.4A8.1,8.1,0,0,0,83.08,251.48Z"/><path class="cls-3" d="M95.57,256.49a.68.68,0,0,1-.06.29.58.58,0,0,1-.15.2.57.57,0,0,1-.21.11.84.84,0,0,1-.23,0h-.49a1.58,1.58,0,0,1-.41,0,.94.94,0,0,1-.33-.17,1.79,1.79,0,0,1-.31-.34A4.35,4.35,0,0,1,93,256l-3.42-6.38q-.27-.49-.54-1t-.51-1.05h0q0,.62,0,1.27t0,1.29v6.76a.22.22,0,0,1,0,.12.24.24,0,0,1-.12.09l-.23.05-.36,0-.36,0-.22-.05a.24.24,0,0,1-.12-.09.22.22,0,0,1,0-.12V246.54a.58.58,0,0,1,.2-.49.7.7,0,0,1,.43-.15h.73a1.78,1.78,0,0,1,.43,0,.89.89,0,0,1,.31.14,1.21,1.21,0,0,1,.27.28,3.62,3.62,0,0,1,.27.44l2.63,4.92.47.88.44.85.41.82.41.81h0c0-.46,0-.93,0-1.42s0-1,0-1.43v-6.08a.19.19,0,0,1,0-.11.28.28,0,0,1,.12-.09.75.75,0,0,1,.23-.06l.37,0,.35,0a.73.73,0,0,1,.23.06.28.28,0,0,1,.12.09.19.19,0,0,1,0,.11Z"/><path class="cls-3" d="M107.17,251.34a7.84,7.84,0,0,1-.37,2.54,4.63,4.63,0,0,1-1.09,1.8,4.52,4.52,0,0,1-1.75,1.07,7.68,7.68,0,0,1-2.48.36H99.11a.61.61,0,0,1-.38-.14.55.55,0,0,1-.18-.47v-10a.55.55,0,0,1,.18-.47.61.61,0,0,1,.38-.14h2.54a7,7,0,0,1,2.46.38,4.48,4.48,0,0,1,1.68,1.08,4.64,4.64,0,0,1,1,1.71A6.87,6.87,0,0,1,107.17,251.34Zm-1.57.06a6.1,6.1,0,0,0-.23-1.69,3.63,3.63,0,0,0-.71-1.36,3.26,3.26,0,0,0-1.22-.89,4.8,4.8,0,0,0-1.9-.32H100v8.72h1.53a5.34,5.34,0,0,0,1.81-.27,3,3,0,0,0,1.23-.82,3.58,3.58,0,0,0,.74-1.39A7,7,0,0,0,105.61,251.4Z"/><path class="cls-3" d="M118.76,251.37a8.53,8.53,0,0,1-.31,2.4,5,5,0,0,1-.94,1.82,4.12,4.12,0,0,1-1.57,1.16,5.57,5.57,0,0,1-2.2.4,5.69,5.69,0,0,1-2.14-.37,3.78,3.78,0,0,1-1.49-1.08,4.6,4.6,0,0,1-.88-1.75,9,9,0,0,1-.29-2.4,8.29,8.29,0,0,1,.31-2.36,4.89,4.89,0,0,1,.94-1.8,4.18,4.18,0,0,1,1.57-1.15,6.26,6.26,0,0,1,4.31,0,3.81,3.81,0,0,1,1.5,1.07,4.51,4.51,0,0,1,.89,1.73A8.66,8.66,0,0,1,118.76,251.37Zm-1.55.1a8.56,8.56,0,0,0-.17-1.74,4,4,0,0,0-.55-1.39,2.66,2.66,0,0,0-1-.92,3.45,3.45,0,0,0-1.59-.33,3.25,3.25,0,0,0-1.6.36,3,3,0,0,0-1,1,3.94,3.94,0,0,0-.58,1.39,7.73,7.73,0,0,0-.17,1.67,9.17,9.17,0,0,0,.16,1.78,4,4,0,0,0,.54,1.41,2.63,2.63,0,0,0,1,.92,3.53,3.53,0,0,0,1.61.33,3.33,3.33,0,0,0,1.61-.36,2.89,2.89,0,0,0,1.05-1,4.07,4.07,0,0,0,.57-1.4A8.12,8.12,0,0,0,117.22,251.48Z"/><path class="cls-3" d="M133.4,256.88a.21.21,0,0,1,0,.12.25.25,0,0,1-.12.08l-.23.05-.36,0-.35,0-.23-.05A.22.22,0,0,1,132,257a.21.21,0,0,1,0-.12v-9.76h0l-4,9.81a.31.31,0,0,1-.07.1.37.37,0,0,1-.14.07l-.21,0h-.3l-.31,0-.22,0a.35.35,0,0,1-.14-.07.26.26,0,0,1-.07-.1l-3.78-9.81h0v9.76a.21.21,0,0,1,0,.12.25.25,0,0,1-.12.08l-.23.05-.37,0-.36,0-.23-.05a.22.22,0,0,1-.12-.08.23.23,0,0,1,0-.12V246.57a.63.63,0,0,1,.19-.52.67.67,0,0,1,.43-.16h.91a2.06,2.06,0,0,1,.49.05,1.09,1.09,0,0,1,.37.16.94.94,0,0,1,.26.29,2,2,0,0,1,.18.41l3.2,8.12h0l3.33-8.09a2.53,2.53,0,0,1,.21-.44,1.08,1.08,0,0,1,.25-.29.83.83,0,0,1,.3-.16,1.38,1.38,0,0,1,.39,0h1a.85.85,0,0,1,.25,0,.55.55,0,0,1,.2.12.63.63,0,0,1,.14.21.81.81,0,0,1,.05.31Z"/><path class="cls-3" d="M137.87,256.88a.22.22,0,0,1,0,.12.24.24,0,0,1-.12.08l-.23.05-.36,0-.36,0-.23-.05a.23.23,0,0,1-.12-.08.22.22,0,0,1,0-.12V246.12a.21.21,0,0,1,0-.12.27.27,0,0,1,.13-.08l.23-.05.34,0,.36,0,.23.05a.24.24,0,0,1,.12.08.22.22,0,0,1,0,.12Zm.25-14.08a1,1,0,0,1,.19-.17.81.81,0,0,1,.2-.1l.27,0h.37a1.59,1.59,0,0,1,.41,0,.45.45,0,0,1,.21.1.14.14,0,0,1,0,.14.44.44,0,0,1-.1.16l-2,1.84-.16.14-.17.08-.22,0h-.31a1.62,1.62,0,0,1-.31,0,.27.27,0,0,1-.16-.07.12.12,0,0,1,0-.12.46.46,0,0,1,.1-.16Z"/><path class="cls-3" d="M149.32,256.49a.66.66,0,0,1-.06.29.56.56,0,0,1-.15.2.59.59,0,0,1-.21.11.85.85,0,0,1-.23,0h-.49a1.58,1.58,0,0,1-.41,0,1,1,0,0,1-.33-.17,1.86,1.86,0,0,1-.31-.34,4.7,4.7,0,0,1-.33-.55l-3.42-6.38c-.18-.33-.36-.67-.54-1s-.35-.71-.51-1.05h0q0,.62,0,1.27c0,.43,0,.86,0,1.29v6.76a.22.22,0,0,1,0,.12.25.25,0,0,1-.12.09l-.23.05-.36,0-.36,0-.22-.05a.24.24,0,0,1-.12-.09.22.22,0,0,1,0-.12V246.54a.58.58,0,0,1,.2-.49.69.69,0,0,1,.43-.15h.73a1.79,1.79,0,0,1,.43,0,.88.88,0,0,1,.31.14,1.17,1.17,0,0,1,.27.28,3.68,3.68,0,0,1,.27.44l2.63,4.92.47.88.44.85.42.82.41.81h0c0-.46,0-.93,0-1.42s0-1,0-1.43v-6.08a.19.19,0,0,1,0-.11.28.28,0,0,1,.12-.09.78.78,0,0,1,.23-.06l.37,0,.35,0a.7.7,0,0,1,.23.06.28.28,0,0,1,.12.09.19.19,0,0,1,0,.11Z"/><path class="cls-3" d="M153.79,256.88a.22.22,0,0,1,0,.12.23.23,0,0,1-.12.08l-.23.05-.36,0-.36,0-.23-.05a.24.24,0,0,1-.12-.08.22.22,0,0,1,0-.12V246.12a.21.21,0,0,1,0-.12.27.27,0,0,1,.13-.08l.23-.05.34,0,.36,0,.23.05a.24.24,0,0,1,.12.08.22.22,0,0,1,0,.12Z"/><path class="cls-3" d="M166.06,251.37a8.54,8.54,0,0,1-.31,2.4,5,5,0,0,1-.94,1.82,4.11,4.11,0,0,1-1.57,1.16,5.57,5.57,0,0,1-2.2.4,5.7,5.7,0,0,1-2.15-.37,3.8,3.8,0,0,1-1.49-1.08,4.6,4.6,0,0,1-.88-1.75,9.08,9.08,0,0,1-.29-2.4,8.32,8.32,0,0,1,.31-2.36,4.88,4.88,0,0,1,.94-1.8,4.19,4.19,0,0,1,1.57-1.15,6.26,6.26,0,0,1,4.31,0,3.8,3.8,0,0,1,1.5,1.07,4.51,4.51,0,0,1,.89,1.73A8.72,8.72,0,0,1,166.06,251.37Zm-1.55.1a8.55,8.55,0,0,0-.16-1.74,4,4,0,0,0-.55-1.39,2.66,2.66,0,0,0-1-.92,3.46,3.46,0,0,0-1.6-.33,3.25,3.25,0,0,0-1.59.36,3,3,0,0,0-1,1,4,4,0,0,0-.58,1.39,7.8,7.8,0,0,0-.17,1.67,9.25,9.25,0,0,0,.16,1.78,4,4,0,0,0,.54,1.41,2.63,2.63,0,0,0,1,.92,3.53,3.53,0,0,0,1.61.33,3.32,3.32,0,0,0,1.61-.36,2.89,2.89,0,0,0,1.05-1,4.07,4.07,0,0,0,.57-1.4A8.07,8.07,0,0,0,164.52,251.48Z"/><path class="cls-4" d="M222.6,0H154.74a98.87,98.87,0,0,1,59.91,90.9c0,38.9-23.82,75.31-59.92,90.9H222.6c4.53-1.18,8.2-4.86,8.2-9.38V8.2A8.2,8.2,0,0,0,222.6,0Z"/><circle class="cls-5" cx="115.99" cy="91.28" r="77.16"/><path class="cls-6" d="M16.14,90.9C16.14,52,40,15.59,76.06,0H8.2C3.67,1.18,0,4.86,0,9.38V173.59a8.2,8.2,0,0,0,8.2,8.2H76.05A98.88,98.88,0,0,1,16.14,90.9Z"/></g></g></g></g></svg>