<svg xmlns="http://www.w3.org/2000/svg" viewBox="0 0 182.42 78.9"><defs><style>.cls-1{fill:#fff;}</style></defs><title>Ativo 9</title><g id="Camada_2" data-name="Camada 2"><g id="Sessoes_da_Pagina" data-name="Sessoes da Pagina"><g id="Rodapé"><g id="Assinatura"><g id="Logo"><path class="cls-1" d="M132.18,28.82c-7.62,0-13.11,4.77-13.11,14.37,0,10.26,6.16,16.69,14.39,16.69,4.1,0,12.34-2.17,12.34-14.94C145.8,34.38,139.37,28.82,132.18,28.82Zm33.57,18.33L161.39,35.3c-.21-.66-.43-.66-.66,0l-3.85,11.84c-.09.21,0,.3.12.3h8.57C165.8,47.45,165.8,47.32,165.75,47.15ZM132.18,28.82c-7.62,0-13.11,4.77-13.11,14.37,0,10.26,6.16,16.69,14.39,16.69,4.1,0,12.34-2.17,12.34-14.94C145.8,34.38,139.37,28.82,132.18,28.82Zm33.57,18.33L161.39,35.3c-.21-.66-.43-.66-.66,0l-3.85,11.84c-.09.21,0,.3.12.3h8.57C165.8,47.45,165.8,47.32,165.75,47.15ZM132.18,28.82c-7.62,0-13.11,4.77-13.11,14.37,0,10.26,6.16,16.69,14.39,16.69,4.1,0,12.34-2.17,12.34-14.94C145.8,34.38,139.37,28.82,132.18,28.82Zm33.57,18.33L161.39,35.3c-.21-.66-.43-.66-.66,0l-3.85,11.84c-.09.21,0,.3.12.3h8.57C165.8,47.45,165.8,47.32,165.75,47.15ZM132.18,28.82c-7.62,0-13.11,4.77-13.11,14.37,0,10.26,6.16,16.69,14.39,16.69,4.1,0,12.34-2.17,12.34-14.94C145.8,34.38,139.37,28.82,132.18,28.82Zm33.57,18.33L161.39,35.3c-.21-.66-.43-.66-.66,0l-3.85,11.84c-.09.21,0,.3.12.3h8.57C165.8,47.45,165.8,47.32,165.75,47.15ZM17.49,77.32c-.07,0-.09.05-.11.18-.09.46-.23.69-.53.82a3.5,3.5,0,0,1-1.14.12c-1.16,0-1.32-.14-1.35-.93,0-.25,0-1.57,0-2v-1c0-.05,0-.09.07-.09s1.37,0,1.69.07.57.23.61.39a1,1,0,0,1,.05.37c0,.05,0,.11.09.11s.07-.12.07-.21,0-.52.05-.73c0-.37.09-.57.09-.64s0-.09-.05-.09-.09.05-.18.14a.81.81,0,0,1-.55.16c-.27,0-1.73,0-1.87,0s-.07,0-.07-.11V70.8c0-.07,0-.11.07-.11s1.41,0,1.6,0c.64.07.77.2.84.37a1,1,0,0,1,.07.41c0,.09,0,.16.11.16s.05-.07.07-.12a5.67,5.67,0,0,0,.05-.75c0-.34.11-.46.11-.55s0-.11-.05-.11-.11.05-.16.07l-.52.05c-.27,0-2.62,0-2.69,0l-.48,0h-.85c-.12,0-.2,0-.2.09s.05.07.11.07a1.39,1.39,0,0,1,.39,0c.39.07.48.25.52.64s0,.69,0,2.46v2c0,1.1,0,2-.05,2.48s-.11.59-.36.62a1.21,1.21,0,0,1-.34.05c-.07,0-.11,0-.11.07s.07.09.2.09l.68,0,.48,0,.91,0c.46,0,1.12,0,2,0,.46,0,.55,0,.64-.3s.16-1,.16-1.1S17.56,77.32,17.49,77.32Zm14.75,1.41-.36,0a.87.87,0,0,1-.61-.59,2.25,2.25,0,0,1-.12-.68l-.8-7c0-.21-.05-.3-.14-.3s-.12.07-.18.18l-3.46,7.16L23,70.3c-.05-.12-.11-.16-.18-.16s-.12.07-.12.2l-.86,7.45c-.05.43-.09.87-.46.94a1.56,1.56,0,0,1-.36,0c-.07,0-.12,0-.12.05s.09.09.2.09l1,0,1.1,0c.14,0,.2,0,.2-.09s0-.05-.09-.05a3.11,3.11,0,0,1-.45-.05.38.38,0,0,1-.3-.36v-.59L23,72.47H23c.12.3,1.44,3,1.55,3.26s1.07,2.08,1.39,2.64.27.53.36.53.14-.11.39-.61l2.89-5.93h0l.55,5.75a.94.94,0,0,1,0,.23.4.4,0,0,1-.34.34,3.13,3.13,0,0,1-.45.05c-.05,0-.11,0-.11.05s.07.11.21.11l1.39,0,1.21,0c.12,0,.2,0,.2-.11S32.29,78.73,32.24,78.73Zm6.25-4c-.25,0-.32,0-.32.11s.07.09.12.09h.25a2.69,2.69,0,0,0,2.9-2.71,1.89,1.89,0,0,0-.59-1.35,2.89,2.89,0,0,0-2.19-.66l-1.48,0c-.09,0-.82-.05-1.35-.05a.16.16,0,0,0-.18.16c0,.05.05.07.09.07l.41,0c.39.09.48.27.5.66s0,.68,0,2.46v2A22.3,22.3,0,0,1,36.62,78c0,.32-.11.57-.34.62a2.43,2.43,0,0,1-.36,0c-.07,0-.09,0-.09.07a.16.16,0,0,0,.18.16c.36,0,1.1-.05,1.12-.05s.82.05,1.48.05a.17.17,0,0,0,.18-.16s0-.07-.09-.07l-.53,0c-.36-.05-.43-.3-.46-.62-.05-.48-.05-1.39-.05-2.48v-4.7c0-.11,0-.18.09-.21a1.78,1.78,0,0,1,.52-.07,2.11,2.11,0,0,1,1.6.57,2.4,2.4,0,0,1,.66,1.76A1.92,1.92,0,0,1,38.49,74.74Zm15.51,4a2.55,2.55,0,0,1-.43,0,2.27,2.27,0,0,1-1.37-.8c-.73-.73-1.59-1.78-2.6-3a3.34,3.34,0,0,0,1.51-2.65,2,2,0,0,0-.85-1.57,4.2,4.2,0,0,0-2.3-.5l-1.55,0c-.07,0-.91,0-1.46,0-.14,0-.2,0-.2.11a.11.11,0,0,0,.09.09l.43,0c.41.05.48.25.5.64s0,.7,0,2.49v2A22.74,22.74,0,0,1,45.74,78c-.05.34-.09.55-.32.61a1.48,1.48,0,0,1-.39.05.08.08,0,0,0-.09.09c0,.07.07.11.2.11.37,0,1.21-.05,1.23-.05s.84.05,1.51.05c.14,0,.2-.05.2-.11a.08.08,0,0,0-.09-.09,3.19,3.19,0,0,1-.55-.05c-.39-.05-.46-.27-.5-.61s-.05-7.28-.05-7.28a.16.16,0,0,1,.09-.14,7,7,0,0,1,.89-.07A2,2,0,0,1,50,72.83a2,2,0,0,1-.75,1.76,2.22,2.22,0,0,1-.94.21c0,.14,1.21,1.53,1.75,2.15a6.05,6.05,0,0,0,1.67,1.71,2.66,2.66,0,0,0,1.34.23h.77c.23,0,.3,0,.3-.11A.12.12,0,0,0,54,78.71Zm8.59-1.39c-.07,0-.09.05-.11.18-.09.46-.23.69-.53.82a3.5,3.5,0,0,1-1.14.12c-1.16,0-1.34-.14-1.37-.93v-3a.08.08,0,0,1,.09-.09c.2,0,1.37,0,1.69.07s.57.23.61.39a1,1,0,0,1,.05.37c0,.05,0,.11.09.11s.07-.12.07-.21a6.63,6.63,0,0,1,.05-.73c0-.37.09-.57.09-.64s0-.09-.05-.09-.11.05-.18.14a.81.81,0,0,1-.55.16c-.27,0-1.73,0-1.89,0s-.07,0-.07-.11V70.8c0-.07,0-.11.07-.11s1.42,0,1.62,0c.64.07.75.2.84.37a1.4,1.4,0,0,1,.07.41c0,.09,0,.16.09.16s.07-.07.09-.12.05-.64.05-.75c0-.32.11-.46.11-.55s0-.11-.05-.11-.11.05-.16.07l-.52.05c-.27,0-2.62,0-2.69,0l-.5,0h-.84c-.14,0-.2,0-.2.09s.05.07.09.07a1.52,1.52,0,0,1,.41,0c.39.07.48.25.5.64s0,.69,0,2.46v2c0,1.1,0,2-.05,2.48s-.11.59-.36.62a1.23,1.23,0,0,1-.36.05c-.07,0-.09,0-.09.07s.05.12.2.12.45-.05.68-.05l.48,0,.91,0c.46,0,1.12,0,2,0,.46,0,.55,0,.64-.3s.16-1,.16-1.1S62.66,77.32,62.59,77.32Zm8.51,0c-.05,0-.07.05-.09.18-.09.46-.23.69-.53.82a3.61,3.61,0,0,1-1.14.12c-1.16,0-1.34-.14-1.37-.93v-3a.08.08,0,0,1,.09-.09c.2,0,1.37,0,1.69.07s.55.23.61.39a1,1,0,0,1,.05.37c0,.05,0,.11.07.11s.09-.12.09-.21a6.62,6.62,0,0,1,.05-.73c0-.37.09-.57.09-.64s0-.09-.05-.09-.11.05-.18.14a.84.84,0,0,1-.55.16c-.28,0-1.73,0-1.89,0S68,74,68,74V70.8c0-.07,0-.11.07-.11s1.42,0,1.62,0c.64.07.75.2.84.37a1.4,1.4,0,0,1,.07.41c0,.09,0,.16.09.16s.07-.07.09-.12.05-.64.05-.75c0-.32.11-.46.11-.55s0-.11-.05-.11-.11.05-.16.07l-.52.05c-.27,0-2.62,0-2.71,0l-.48,0h-.84c-.14,0-.2,0-.2.09s.05.07.09.07a1.52,1.52,0,0,1,.41,0c.39.07.48.25.5.64s0,.69,0,2.46v2A22.13,22.13,0,0,1,66.92,78c0,.34-.11.59-.34.62a1.23,1.23,0,0,1-.36.05c-.07,0-.09,0-.09.07s.05.12.2.12.45-.05.68-.05l.46,0,.93,0c.46,0,1.1,0,2,0,.46,0,.55,0,.64-.3s.14-1,.14-1.1S71.17,77.32,71.1,77.32Zm12.65-7.07c-.48,0-.87,0-1,0s-.69,0-1.23,0c-.14,0-.23,0-.23.09s0,.07.09.07a2.89,2.89,0,0,1,.59.07c.36.09.45.34.46,1.07l.12,5.81c-.37-.37-1.67-1.78-2.83-3-1.82-1.89-3.58-3.72-3.76-3.92s-.32-.32-.41-.32-.12.07-.12.52l0,6.54c0,1.05-.05,1.37-.36,1.46a1.84,1.84,0,0,1-.48.07c-.05,0-.09,0-.09.05s.07.12.2.12c.52,0,1-.05,1.12-.05s.57.05,1.25.05c.14,0,.21-.05.21-.12s0-.05-.09-.05a2.86,2.86,0,0,1-.59-.07c-.32-.09-.45-.39-.46-1.34L76,71.87c.39.41,1.71,1.83,3.08,3.26s3,3,3.08,3.1c.62.61.77.68.85.68s.11,0,.11-.75l0-6.7c0-.68,0-.93.43-1a1.06,1.06,0,0,1,.28,0c.09,0,.12,0,.12-.07S83.89,70.25,83.75,70.25Zm11.36,1.21c-1.41-1.39-3.56-1.3-4.72-1.3-.71,0-1.46,0-1.6,0s-.8,0-1.34,0c-.12,0-.18,0-.18.09s0,.07.09.07l.41,0c.37.09.48.27.5.66s0,.68,0,2.46v2A22.34,22.34,0,0,1,88.24,78c0,.32-.11.57-.34.62a2.39,2.39,0,0,1-.36,0c-.07,0-.09,0-.09.07s.05.21.18.21.45-.09.68-.09l.48,0c.07,0,.46,0,1,0s1.14.09,1.64.09A4.85,4.85,0,0,0,95,77.59a4.6,4.6,0,0,0,1.26-3.22A4.06,4.06,0,0,0,95.11,71.46Zm-.85,6a4,4,0,0,1-2.81,1.05c-1.39,0-1.85-.23-2-.45a2.28,2.28,0,0,1-.14-.87c0-.21,0-1.26,0-2.48V73.29c0-.89,0-2,0-2.44,0-.12,0-.18.14-.21a2.81,2.81,0,0,1,.77-.09,4.94,4.94,0,0,1,3.85,1.28,4,4,0,0,1,1.14,2.89A4,4,0,0,1,94.26,77.44Zm8.23,1.23-.53,0c-.36-.05-.43-.3-.45-.62a22.27,22.27,0,0,1-.07-2.48v-2c0-1.78,0-2.1,0-2.48s.12-.59.45-.64a2.73,2.73,0,0,1,.3,0s.09,0,.09-.07-.05-.16-.2-.16c-.36,0-1.07.07-1.12.07s-.84-.07-1.21-.07c-.14,0-.2.09-.2.16s.05.07.09.07a1.7,1.7,0,0,1,.37.05c.25.05.37.25.39.62s0,.69,0,2.48v2c0,1.09,0,2-.05,2.48,0,.32-.11.57-.34.62a2.43,2.43,0,0,1-.36,0c-.07,0-.09,0-.09.07s.05.16.2.16c.34,0,1.07-.05,1.12-.05s.82.05,1.48.05a.2.2,0,0,0,.2-.16S102.56,78.67,102.49,78.67Zm14.78.05-.36,0a.87.87,0,0,1-.61-.59,2.6,2.6,0,0,1-.14-.68l-.78-7c0-.21-.05-.3-.14-.3s-.12.07-.18.18l-3.46,7.16L108,70.3c-.05-.12-.11-.16-.18-.16s-.12.07-.12.2l-.85,7.45c-.05.43-.09.87-.48.94a1.43,1.43,0,0,1-.34,0c-.07,0-.12,0-.12.05s.09.09.2.09l1,0,1.1,0c.12,0,.2,0,.2-.09s0-.05-.09-.05a3.11,3.11,0,0,1-.45-.05.38.38,0,0,1-.3-.36v-.59l.48-5.29h.05c.12.3,1.44,3,1.55,3.26s1.07,2.08,1.37,2.64.28.53.37.53.14-.11.39-.61l2.89-5.93h0l.55,5.75c0,.07,0,.14,0,.23a.4.4,0,0,1-.34.34,3.12,3.12,0,0,1-.45.05c-.05,0-.11,0-.11.05s.07.11.21.11l1.39,0,1.21,0c.12,0,.2,0,.2-.11S117.32,78.73,117.27,78.73Zm8.57-1.41c-.05,0-.07.05-.11.18-.09.46-.21.69-.53.82a3.45,3.45,0,0,1-1.12.12c-1.16,0-1.34-.14-1.37-.93,0-.25,0-1.57,0-2v-1c0-.05,0-.09.09-.09s1.35,0,1.67.07.57.23.62.39a1.46,1.46,0,0,1,0,.37.1.1,0,0,0,.09.11c.09,0,.09-.12.09-.21s0-.52,0-.73c0-.37.11-.57.11-.64s0-.09-.07-.09-.09.05-.18.14a.81.81,0,0,1-.55.16c-.27,0-1.71,0-1.87,0s-.07,0-.07-.11V70.8c0-.07,0-.11.07-.11s1.41,0,1.62,0c.64.07.75.2.84.37a1.4,1.4,0,0,1,.07.41c0,.09,0,.16.09.16s.07-.07.09-.12,0-.64.05-.75c0-.32.09-.46.09-.55s0-.11,0-.11-.11.05-.18.07l-.5.05c-.27,0-2.62,0-2.71,0l-.48,0h-.85c-.12,0-.18,0-.18.09a.08.08,0,0,0,.09.07,1.58,1.58,0,0,1,.41,0c.37.07.48.25.5.64s0,.69,0,2.46v2c0,1.1,0,2-.05,2.48s-.11.59-.34.62a1.23,1.23,0,0,1-.36.05c-.07,0-.09,0-.09.07s.05.12.18.12.45-.05.69-.05l.46,0,.93,0c.46,0,1.1,0,2,0,.46,0,.55,0,.64-.3s.14-1,.14-1.1S125.91,77.32,125.84,77.32Zm12.65-7.07c-.48,0-.87,0-1,0s-.69,0-1.23,0c-.14,0-.23,0-.23.09s0,.07.09.07a3,3,0,0,1,.59.07c.36.09.45.34.45,1.07l.14,5.81c-.37-.37-1.67-1.78-2.83-3-1.82-1.89-3.58-3.72-3.76-3.92s-.32-.32-.41-.32-.12.07-.12.52l0,6.54c0,1.05-.05,1.37-.36,1.46a1.94,1.94,0,0,1-.48.07c-.05,0-.09,0-.09.05s.07.12.18.12c.53,0,1-.05,1.14-.05s.57.05,1.25.05c.14,0,.21-.05.21-.12s0-.05-.09-.05a2.86,2.86,0,0,1-.59-.07c-.32-.09-.45-.39-.46-1.34l-.16-5.45c.37.41,1.71,1.83,3.08,3.26s3,3,3.08,3.1c.62.61.77.68.86.68s.11,0,.11-.75l0-6.7c0-.68.05-.93.45-1a1,1,0,0,1,.28,0c.07,0,.12,0,.12-.07S138.61,70.25,138.48,70.25Zm-6.31-41.43c-7.62,0-13.11,4.77-13.11,14.37,0,10.26,6.16,16.69,14.39,16.69,4.1,0,12.34-2.17,12.34-14.94C145.8,34.38,139.37,28.82,132.18,28.82Zm17.47,41.32-.34.05a8.41,8.41,0,0,1-.89.05h-5.13a8.41,8.41,0,0,1-.89-.05l-.34-.05c-.05,0-.05.05-.05.12,0,.36,0,1.18,0,1.32s.05.14.11.14.09,0,.11-.2l0-.12c0-.36.3-.61,1.48-.64l1.53,0v4.83c0,1.1,0,2-.05,2.49s-.09.55-.48.61a3.37,3.37,0,0,1-.55.05c-.09,0-.11.05-.11.09s.07.09.2.09l1.44,0H146l1.44,0c.12,0,.2,0,.2-.09s0-.09-.11-.09a3.37,3.37,0,0,1-.55-.05c-.37-.05-.45-.27-.48-.61s-.05-1.39-.05-2.49V70.75l1.53,0c1.18,0,1.44.28,1.5.64v.12c0,.16.05.2.11.2s.11-.05.11-.14,0-1,0-1.32C149.7,70.19,149.7,70.14,149.65,70.14Zm8,0A4.42,4.42,0,0,0,153,74.52a4.27,4.27,0,0,0,4.58,4.38,4.47,4.47,0,0,0,4.7-4.58C162.3,71.67,160.32,70.14,157.66,70.14Zm.25,8.42c-2.12,0-3.78-1.71-3.78-4.36s1.48-3.76,3.44-3.76,3.58,1.46,3.58,4.2C161.16,78,159,78.56,157.91,78.56Zm7.84-31.42L161.39,35.3c-.21-.66-.43-.66-.66,0l-3.85,11.84c-.09.21,0,.3.12.3h8.57C165.8,47.45,165.8,47.32,165.75,47.15ZM168.42,74l-.34-.25c-1.12-.85-1.43-1.26-1.43-1.92a1.31,1.31,0,0,1,1.44-1.32c1.09,0,1.41.48,1.48.61a1.58,1.58,0,0,1,.14.57c0,.09,0,.14.11.14s.07-.07.07-.27a8.55,8.55,0,0,1,.05-1.09c0-.05,0-.16-.11-.16a1.24,1.24,0,0,1-.41,0,4.92,4.92,0,0,0-1.1-.09c-1.51,0-2.44.75-2.44,2,0,.77.27,1.48,1.53,2.48L168,75c1,.82,1.35,1.28,1.35,2.07a1.56,1.56,0,0,1-1.69,1.51,1.6,1.6,0,0,1-1.75-1.16,2,2,0,0,1,0-.43c0-.09,0-.12-.09-.12s-.07.05-.09.18-.05.64-.05,1.21c0,.3,0,.36.16.43a3.65,3.65,0,0,0,1.59.21,3.13,3.13,0,0,0,1.78-.37,2.36,2.36,0,0,0,1-1.91C170.15,75.72,169.81,75,168.42,74Zm-2.67-26.81L161.39,35.3c-.21-.66-.43-.66-.66,0l-3.85,11.84c-.09.21,0,.3.12.3h8.57C165.8,47.45,165.8,47.32,165.75,47.15ZM132.18,28.82c-7.62,0-13.11,4.77-13.11,14.37,0,10.26,6.16,16.69,14.39,16.69,4.1,0,12.34-2.17,12.34-14.94C145.8,34.38,139.37,28.82,132.18,28.82Zm0,0c-7.62,0-13.11,4.77-13.11,14.37,0,10.26,6.16,16.69,14.39,16.69,4.1,0,12.34-2.17,12.34-14.94C145.8,34.38,139.37,28.82,132.18,28.82Zm33.57,18.33L161.39,35.3c-.21-.66-.43-.66-.66,0l-3.85,11.84c-.09.21,0,.3.12.3h8.57C165.8,47.45,165.8,47.32,165.75,47.15Zm0,0L161.39,35.3c-.21-.66-.43-.66-.66,0l-3.85,11.84c-.09.21,0,.3.12.3h8.57C165.8,47.45,165.8,47.32,165.75,47.15ZM132.18,28.82c-7.62,0-13.11,4.77-13.11,14.37,0,10.26,6.16,16.69,14.39,16.69,4.1,0,12.34-2.17,12.34-14.94C145.8,34.38,139.37,28.82,132.18,28.82Zm0,0c-7.62,0-13.11,4.77-13.11,14.37,0,10.26,6.16,16.69,14.39,16.69,4.1,0,12.34-2.17,12.34-14.94C145.8,34.38,139.37,28.82,132.18,28.82Zm33.57,18.33L161.39,35.3c-.21-.66-.43-.66-.66,0l-3.85,11.84c-.09.21,0,.3.12.3h8.57C165.8,47.45,165.8,47.32,165.75,47.15Zm0,0L161.39,35.3c-.21-.66-.43-.66-.66,0l-3.85,11.84c-.09.21,0,.3.12.3h8.57C165.8,47.45,165.8,47.32,165.75,47.15ZM132.18,28.82c-7.62,0-13.11,4.77-13.11,14.37,0,10.26,6.16,16.69,14.39,16.69,4.1,0,12.34-2.17,12.34-14.94C145.8,34.38,139.37,28.82,132.18,28.82Zm0,0c-7.62,0-13.11,4.77-13.11,14.37,0,10.26,6.16,16.69,14.39,16.69,4.1,0,12.34-2.17,12.34-14.94C145.8,34.38,139.37,28.82,132.18,28.82Zm33.57,18.33L161.39,35.3c-.21-.66-.43-.66-.66,0l-3.85,11.84c-.09.21,0,.3.12.3h8.57C165.8,47.45,165.8,47.32,165.75,47.15Zm0,0L161.39,35.3c-.21-.66-.43-.66-.66,0l-3.85,11.84c-.09.21,0,.3.12.3h8.57C165.8,47.45,165.8,47.32,165.75,47.15ZM132.18,28.82c-7.62,0-13.11,4.77-13.11,14.37,0,10.26,6.16,16.69,14.39,16.69,4.1,0,12.34-2.17,12.34-14.94C145.8,34.38,139.37,28.82,132.18,28.82Zm16.94-16.17-.21-.05c-.91-.25-1.82-.46-2.74-.66l-.07,0A249.76,249.76,0,0,0,91.3,6.18a250,250,0,0,0-54.64,5.7l-.12,0c-1.12.25-2.21.53-3.29.8l-.21.05a1,1,0,0,0-.21.05s-.05,0-.07,0C19.2,16.21,8,20.73.05,26V59.6c0,4.58,3.62,7,8.21,7H174.1c4.6,0,8.32-2.48,8.32-7.07V26C174.37,20.61,162.92,16,149.12,12.65ZM32.22,33.47c0,.36-.21.57-.43.57s-.3-.16-.36-.78l-.05-.46c-.16-1.35-1.14-2.35-5.52-2.46l-5.74-.11v18.6c0,4.27,0,7.77.21,9.6.16,1.3.37,2.12,1.78,2.33a12.72,12.72,0,0,0,1.71.25.32.32,0,0,1,.36.36c0,.21-.21.37-.73.37-2.07,0-4.06-.14-5-.18l-.48,0-.48,0c-.89,0-2.4.18-4.49.18-.52,0-.73-.16-.73-.37A.33.33,0,0,1,12.7,61a8.87,8.87,0,0,0,1.25-.25c1.41-.21,1.6-1,1.76-2.33.21-1.83.21-5.33.21-9.6V30.23l-5.74.11c-4.38.11-5.36,1.1-5.52,2.46l-.05.46c-.05.62-.16.78-.36.78s-.43-.21-.43-.57c0-.52-.16-3.7-.16-5.06,0-.27,0-.52.21-.52s.62.11,1.3.2a22.42,22.42,0,0,0,3.3.21H27.59a22.32,22.32,0,0,0,3.28-.21c.68-.09,1.09-.2,1.3-.2s.21.25.21.52C32.38,29.76,32.22,33,32.22,33.47ZM55.11,60.56c-.3,1.14-.77,1.14-2.53,1.14-3.44,0-6.07-.11-7.94-.16s-3.1-.11-3.78-.11c-.11,0-1,0-2,.05s-1.92.11-2.64.11c-.48,0-.73-.11-.73-.36a.36.36,0,0,1,.36-.37,12.72,12.72,0,0,0,1.41-.21c.87-.14,1-1,1.19-2.33a93.23,93.23,0,0,0,.25-9.53V41c0-6.84,0-8.09-.09-9.48s-.37-2.24-1.87-2.44A14.37,14.37,0,0,0,35.21,29a.45.45,0,0,1-.37-.37c0-.25.21-.36.73-.36,2.07,0,5,.11,5.29.11s9.85.05,10.88,0a20.55,20.55,0,0,0,2.07-.27c.21,0,.43-.2.62-.2s.21.2.21.41a18.57,18.57,0,0,0-.36,2.08c-.05.41-.16,2.39-.27,2.9-.05.2-.21.46-.41.46s-.37-.21-.37-.57A5.13,5.13,0,0,0,53,31.61c-.32-.71-.78-1-3.28-1.34-.77-.11-6.06-.16-6.57-.16-.21,0-.27.16-.27.46v12c0,.3,0,.46.27.46.57,0,6.57,0,7.62-.11s1.76-.16,2.23-.62c.3-.3.52-.57.68-.57s.25.11.25.36-.25,1-.36,2.44c-.11.89-.21,2.55-.21,2.85s-.11.84-.41.84-.3-.16-.3-.41a3.81,3.81,0,0,0-.21-1.46c-.16-.62-.57-1.14-2.33-1.35-1.25-.14-6.13-.2-6.89-.2-.27,0-.32.14-.32.3v3.69c0,1.5-.05,6.64,0,7.52.11,3,.94,3.53,5.45,3.53a15.3,15.3,0,0,0,4.56-.46c1.19-.52,1.82-1.3,2.07-3.06.11-.52.21-.68.48-.68s.3.36.3.68A35.52,35.52,0,0,1,55.11,60.56Zm64.32,1.14h-2.85c-2.58,0-3.72-.27-4.86-.89-2-1-3.63-3.15-6.23-6.48-1.91-2.39-6.29-7.71-6.39-8.23a8.89,8.89,0,0,0,3.49-.78c1.57-1,2.76-3.37,2.76-6.75,0-5.49-3-8.66-7.89-8.66a19.28,19.28,0,0,0-3.26.27.56.56,0,0,0-.37.52S93.86,57,94,58.42s.41,2.14,1.82,2.33a16.08,16.08,0,0,0,2,.21.32.32,0,0,1,.36.36c0,.21-.21.37-.73.37-1.83,0-3.88-.09-4.93-.14a1.82,1.82,0,0,1-.94.14H88.77l-.71,0-.68,0a1.55,1.55,0,0,1-.45-.07,6.82,6.82,0,0,1-3-.82c-2-1-3.63-3.15-6.22-6.48-1.92-2.39-6.31-7.71-6.39-8.23a9,9,0,0,0,3.49-.78c1.55-1,2.74-3.37,2.74-6.75,0-5.49-3-8.66-7.87-8.66a19.36,19.36,0,0,0-3.28.27.57.57,0,0,0-.36.52s0,26.31.2,27.73.43,2.14,1.82,2.33a16.42,16.42,0,0,0,2,.21.32.32,0,0,1,.36.36c0,.21-.2.37-.71.37-2.49,0-5.4-.16-5.61-.16-.05,0-3.12.16-4.51.16-.46,0-.73-.11-.73-.37a.36.36,0,0,1,.37-.36,6.24,6.24,0,0,0,1.39-.21c.89-.2,1-1,1.19-2.33a87.23,87.23,0,0,0,.27-9.53V41.11c0-6.84,0-8.09-.11-9.49s-.37-2.23-1.87-2.42a14.13,14.13,0,0,0-1.55-.11.45.45,0,0,1-.37-.37c0-.25.21-.36.73-.36,2.07,0,5.13.11,5.4.11.46,0,4.29-.11,5.7-.11,2.9,0,6.13.27,8.5,1.92a7.71,7.71,0,0,1,3.17,6c0,3.28-1.35,6.43-5.59,10.06C79.79,51,83,55,85.6,57.76a11.4,11.4,0,0,0,3.46,2.6,4.33,4.33,0,0,0,.57-1.94,93.43,93.43,0,0,0,.25-9.53V41.11c0-6.84,0-8.09-.11-9.49s-.36-2.23-1.87-2.42a13.82,13.82,0,0,0-1.55-.11.46.46,0,0,1-.36-.37c0-.25.21-.36.73-.36,2.07,0,5.13.11,5.38.11.48,0,4.31-.11,5.72-.11,2.9,0,6.11.27,8.5,1.92a7.71,7.71,0,0,1,3.17,6c0,3.28-1.35,6.43-5.61,10.06,3.74,4.67,6.89,8.66,9.55,11.42,2.44,2.48,3.94,2.89,5.08,3a8.22,8.22,0,0,0,1.6.16.41.41,0,0,1,.43.36C120.53,61.59,120.26,61.7,119.42,61.7Zm12.75,0c-12.5,0-17.85-9.39-17.85-17.31,0-7.11,5.5-17.22,18.1-17.22,10.28,0,18,6.27,18,16.55C150.47,53.56,143.17,61.7,132.18,61.7Zm45.88.27c-.66,0-3.58,0-6.61-.05-.84-.05-1.3-.05-1.3-.3s.12-.27.28-.32.53-.48.27-1.18l-4.15-10.83a.39.39,0,0,0-.39-.27h-9.64a.49.49,0,0,0-.45.36l-2.62,7.77a9.36,9.36,0,0,0-.62,2.94c0,.87.93,1.26,1.67,1.26h.43c.32,0,.45.09.45.27s-.27.36-.66.36c-1.05,0-2.94-.14-3.42-.14s-2.89.14-5,.14c-.57,0-.84-.09-.84-.36s.18-.27.39-.27a10.83,10.83,0,0,0,1.28-.09c2-.27,2.89-1.92,3.69-4.11l9.94-27.23c.53-1.44.71-1.71,1-1.71s.43.21,1,1.59c.66,1.66,7.53,19.77,10.21,26.43,1.59,3.9,2.85,4.61,3.78,4.88a5.79,5.79,0,0,0,1.76.25c.25,0,.43.05.43.27S178.54,62,178.06,62Zm-18.33-36.8c0-.12.09-.21.3-.36,1.59-1.09,5.66-3.54,6-3.72.75-.43,1-.57,1.23-.57s.21.09.43.39.62,1.07,1.1,1.94c.21.39,0,.52-.18.52a5.71,5.71,0,0,0-1.32,0,28.3,28.3,0,0,0-6.66,1.85,2.83,2.83,0,0,1-.66.21A.24.24,0,0,1,159.73,25.17Zm1.66,10.13c-.21-.66-.43-.66-.66,0l-3.85,11.84c-.09.21,0,.3.12.3h8.57c.23,0,.23-.12.18-.3Zm-29.21-6.48c-7.62,0-13.11,4.77-13.11,14.37,0,10.26,6.16,16.69,14.39,16.69,4.1,0,12.34-2.17,12.34-14.94C145.8,34.38,139.37,28.82,132.18,28.82Zm0,0c-7.62,0-13.11,4.77-13.11,14.37,0,10.26,6.16,16.69,14.39,16.69,4.1,0,12.34-2.17,12.34-14.94C145.8,34.38,139.37,28.82,132.18,28.82Zm33.57,18.33L161.39,35.3c-.21-.66-.43-.66-.66,0l-3.85,11.84c-.09.21,0,.3.12.3h8.57C165.8,47.45,165.8,47.32,165.75,47.15Zm0,0L161.39,35.3c-.21-.66-.43-.66-.66,0l-3.85,11.84c-.09.21,0,.3.12.3h8.57C165.8,47.45,165.8,47.32,165.75,47.15ZM132.18,28.82c-7.62,0-13.11,4.77-13.11,14.37,0,10.26,6.16,16.69,14.39,16.69,4.1,0,12.34-2.17,12.34-14.94C145.8,34.38,139.37,28.82,132.18,28.82Zm0,0c-7.62,0-13.11,4.77-13.11,14.37,0,10.26,6.16,16.69,14.39,16.69,4.1,0,12.34-2.17,12.34-14.94C145.8,34.38,139.37,28.82,132.18,28.82Zm33.57,18.33L161.39,35.3c-.21-.66-.43-.66-.66,0l-3.85,11.84c-.09.21,0,.3.12.3h8.57C165.8,47.45,165.8,47.32,165.75,47.15Zm0,0L161.39,35.3c-.21-.66-.43-.66-.66,0l-3.85,11.84c-.09.21,0,.3.12.3h8.57C165.8,47.45,165.8,47.32,165.75,47.15ZM132.18,28.82c-7.62,0-13.11,4.77-13.11,14.37,0,10.26,6.16,16.69,14.39,16.69,4.1,0,12.34-2.17,12.34-14.94C145.8,34.38,139.37,28.82,132.18,28.82Zm0,0c-7.62,0-13.11,4.77-13.11,14.37,0,10.26,6.16,16.69,14.39,16.69,4.1,0,12.34-2.17,12.34-14.94C145.8,34.38,139.37,28.82,132.18,28.82Zm33.57,18.33L161.39,35.3c-.21-.66-.43-.66-.66,0l-3.85,11.84c-.09.21,0,.3.12.3h8.57C165.8,47.45,165.8,47.32,165.75,47.15Zm0,0L161.39,35.3c-.21-.66-.43-.66-.66,0l-3.85,11.84c-.09.21,0,.3.12.3h8.57C165.8,47.45,165.8,47.32,165.75,47.15ZM132.18,28.82c-7.62,0-13.11,4.77-13.11,14.37,0,10.26,6.16,16.69,14.39,16.69,4.1,0,12.34-2.17,12.34-14.94C145.8,34.38,139.37,28.82,132.18,28.82Zm33.57,18.33L161.39,35.3c-.21-.66-.43-.66-.66,0l-3.85,11.84c-.09.21,0,.3.12.3h8.57C165.8,47.45,165.8,47.32,165.75,47.15ZM132.18,28.82c-7.62,0-13.11,4.77-13.11,14.37,0,10.26,6.16,16.69,14.39,16.69,4.1,0,12.34-2.17,12.34-14.94C145.8,34.38,139.37,28.82,132.18,28.82Zm33.57,18.33L161.39,35.3c-.21-.66-.43-.66-.66,0l-3.85,11.84c-.09.21,0,.3.12.3h8.57C165.8,47.45,165.8,47.32,165.75,47.15ZM132.18,28.82c-7.62,0-13.11,4.77-13.11,14.37,0,10.26,6.16,16.69,14.39,16.69,4.1,0,12.34-2.17,12.34-14.94C145.8,34.38,139.37,28.82,132.18,28.82Zm33.57,18.33L161.39,35.3c-.21-.66-.43-.66-.66,0l-3.85,11.84c-.09.21,0,.3.12.3h8.57C165.8,47.45,165.8,47.32,165.75,47.15ZM132.18,28.82c-7.62,0-13.11,4.77-13.11,14.37,0,10.26,6.16,16.69,14.39,16.69,4.1,0,12.34-2.17,12.34-14.94C145.8,34.38,139.37,28.82,132.18,28.82Zm33.57,18.33L161.39,35.3c-.21-.66-.43-.66-.66,0l-3.85,11.84c-.09.21,0,.3.12.3h8.57C165.8,47.45,165.8,47.32,165.75,47.15ZM132.18,28.82c-7.62,0-13.11,4.77-13.11,14.37,0,10.26,6.16,16.69,14.39,16.69,4.1,0,12.34-2.17,12.34-14.94C145.8,34.38,139.37,28.82,132.18,28.82Zm0,0c-7.62,0-13.11,4.77-13.11,14.37,0,10.26,6.16,16.69,14.39,16.69,4.1,0,12.34-2.17,12.34-14.94C145.8,34.38,139.37,28.82,132.18,28.82Zm0,0c-7.62,0-13.11,4.77-13.11,14.37,0,10.26,6.16,16.69,14.39,16.69,4.1,0,12.34-2.17,12.34-14.94C145.8,34.38,139.37,28.82,132.18,28.82Z"/><path class="cls-1" d="M181.16,23.55l-1.34-.75c-.29-.16-.59-.32-.89-.46a7.38,7.38,0,0,0-.84-.43c-.27-.14-.55-.28-.84-.41a74.72,74.72,0,0,0-6.91-2.94c-.66-.25-1.34-.5-2-.73a152.77,152.77,0,0,0-19.22-5.18l-.21-.05c-.91-.25-1.82-.46-2.74-.66l-.07,0A249.76,249.76,0,0,0,91.3,6.18a250,250,0,0,0-54.64,5.7l-.12,0c-1.12.25-2.21.53-3.29.8l-.21.05a1,1,0,0,0-.21.05s-.05,0-.07,0C19.2,16.21,8,20.73.05,26v1.12C12.91,17.35,34.59,12,60.59,9.83c9.69-.8,20-1.18,30.64-1.18s21,.37,30.67,1.18c26,2.17,47.64,7.5,60.52,17.26V24.31C182,24.06,181.6,23.8,181.16,23.55ZM174.1,0H8.21A8.32,8.32,0,0,0,0,8.42L.05,23.49C16.07,11.65,51,3.44,91.3,3.44s75.11,8.21,91.12,20.06V8.35A8.36,8.36,0,0,0,174.1,0Z"/><path class="cls-1" d="M132.18,28.82c-7.62,0-13.11,4.77-13.11,14.37,0,10.26,6.16,16.69,14.39,16.69,4.1,0,12.34-2.17,12.34-14.94C145.8,34.38,139.37,28.82,132.18,28.82Zm33.57,18.33L161.39,35.3c-.21-.66-.43-.66-.66,0l-3.85,11.84c-.09.21,0,.3.12.3h8.57C165.8,47.45,165.8,47.32,165.75,47.15Zm0,0L161.39,35.3c-.21-.66-.43-.66-.66,0l-3.85,11.84c-.09.21,0,.3.12.3h8.57C165.8,47.45,165.8,47.32,165.75,47.15ZM132.18,28.82c-7.62,0-13.11,4.77-13.11,14.37,0,10.26,6.16,16.69,14.39,16.69,4.1,0,12.34-2.17,12.34-14.94C145.8,34.38,139.37,28.82,132.18,28.82Zm0,0c-7.62,0-13.11,4.77-13.11,14.37,0,10.26,6.16,16.69,14.39,16.69,4.1,0,12.34-2.17,12.34-14.94C145.8,34.38,139.37,28.82,132.18,28.82Zm33.57,18.33L161.39,35.3c-.21-.66-.43-.66-.66,0l-3.85,11.84c-.09.21,0,.3.12.3h8.57C165.8,47.45,165.8,47.32,165.75,47.15Zm0,0L161.39,35.3c-.21-.66-.43-.66-.66,0l-3.85,11.84c-.09.21,0,.3.12.3h8.57C165.8,47.45,165.8,47.32,165.75,47.15ZM132.18,28.82c-7.62,0-13.11,4.77-13.11,14.37,0,10.26,6.16,16.69,14.39,16.69,4.1,0,12.34-2.17,12.34-14.94C145.8,34.38,139.37,28.82,132.18,28.82Zm0,0c-7.62,0-13.11,4.77-13.11,14.37,0,10.26,6.16,16.69,14.39,16.69,4.1,0,12.34-2.17,12.34-14.94C145.8,34.38,139.37,28.82,132.18,28.82Zm33.57,18.33L161.39,35.3c-.21-.66-.43-.66-.66,0l-3.85,11.84c-.09.21,0,.3.12.3h8.57C165.8,47.45,165.8,47.32,165.75,47.15Zm0,0L161.39,35.3c-.21-.66-.43-.66-.66,0l-3.85,11.84c-.09.21,0,.3.12.3h8.57C165.8,47.45,165.8,47.32,165.75,47.15ZM132.18,28.82c-7.62,0-13.11,4.77-13.11,14.37,0,10.26,6.16,16.69,14.39,16.69,4.1,0,12.34-2.17,12.34-14.94C145.8,34.38,139.37,28.82,132.18,28.82Zm0,0c-7.62,0-13.11,4.77-13.11,14.37,0,10.26,6.16,16.69,14.39,16.69,4.1,0,12.34-2.17,12.34-14.94C145.8,34.38,139.37,28.82,132.18,28.82Zm33.57,18.33L161.39,35.3c-.21-.66-.43-.66-.66,0l-3.85,11.84c-.09.21,0,.3.12.3h8.57C165.8,47.45,165.8,47.32,165.75,47.15Zm0,0L161.39,35.3c-.21-.66-.43-.66-.66,0l-3.85,11.84c-.09.21,0,.3.12.3h8.57C165.8,47.45,165.8,47.32,165.75,47.15ZM132.18,28.82c-7.62,0-13.11,4.77-13.11,14.37,0,10.26,6.16,16.69,14.39,16.69,4.1,0,12.34-2.17,12.34-14.94C145.8,34.38,139.37,28.82,132.18,28.82Zm0,0c-7.62,0-13.11,4.77-13.11,14.37,0,10.26,6.16,16.69,14.39,16.69,4.1,0,12.34-2.17,12.34-14.94C145.8,34.38,139.37,28.82,132.18,28.82Zm33.57,18.33L161.39,35.3c-.21-.66-.43-.66-.66,0l-3.85,11.84c-.09.21,0,.3.12.3h8.57C165.8,47.45,165.8,47.32,165.75,47.15Zm0,0L161.39,35.3c-.21-.66-.43-.66-.66,0l-3.85,11.84c-.09.21,0,.3.12.3h8.57C165.8,47.45,165.8,47.32,165.75,47.15ZM132.18,28.82c-7.62,0-13.11,4.77-13.11,14.37,0,10.26,6.16,16.69,14.39,16.69,4.1,0,12.34-2.17,12.34-14.94C145.8,34.38,139.37,28.82,132.18,28.82Zm0,0c-7.62,0-13.11,4.77-13.11,14.37,0,10.26,6.16,16.69,14.39,16.69,4.1,0,12.34-2.17,12.34-14.94C145.8,34.38,139.37,28.82,132.18,28.82Zm33.57,18.33L161.39,35.3c-.21-.66-.43-.66-.66,0l-3.85,11.84c-.09.21,0,.3.12.3h8.57C165.8,47.45,165.8,47.32,165.75,47.15Zm0,0L161.39,35.3c-.21-.66-.43-.66-.66,0l-3.85,11.84c-.09.21,0,.3.12.3h8.57C165.8,47.45,165.8,47.32,165.75,47.15ZM132.18,28.82c-7.62,0-13.11,4.77-13.11,14.37,0,10.26,6.16,16.69,14.39,16.69,4.1,0,12.34-2.17,12.34-14.94C145.8,34.38,139.37,28.82,132.18,28.82Zm49-5.27-1.34-.75c-.29-.16-.59-.32-.89-.46a7.38,7.38,0,0,0-.84-.43c-.27-.14-.55-.28-.84-.41a74.72,74.72,0,0,0-6.91-2.94c-.66-.25-1.34-.5-2-.73a152.77,152.77,0,0,0-19.22-5.18l-.21-.05-3.83-.75a2.33,2.33,0,0,1-.34-.07l-.36-.07-.37-.05a1.41,1.41,0,0,1-.27,0c-.94-.18-1.89-.34-2.85-.5s-2.1-.34-3.17-.5c-.57-.09-1.14-.18-1.71-.25-2.89-.43-5.88-.82-8.92-1.16-.93-.11-1.89-.21-2.83-.3-2.46-.25-5-.48-7.5-.66q-1.9-.16-3.85-.27c-1.3-.09-2.58-.18-3.9-.23q-1.71-.11-3.47-.16c-1-.05-2-.09-3-.12-1.21,0-2.46-.07-3.69-.09-1.07,0-2.14-.05-3.22-.05-.71,0-1.42,0-2.14,0s-1.42,0-2.14,0c-1.5,0-3,0-4.45,0h-.68c-1.5,0-3,.05-4.45.11-.23,0-.46,0-.68,0-.93,0-1.83.05-2.72.09a3.45,3.45,0,0,0-.43,0c-.8,0-1.59.05-2.37.11-1.59.07-3.17.16-4.74.25s-3.12.2-4.67.32c-.78.05-1.55.11-2.3.18s-1.51.12-2.26.2c-1.51.14-3,.28-4.49.45l-2.46.27c-1.35.16-2.71.32-4,.5-1.64.21-3.26.43-4.84.68-1.05.14-2.08.32-3.12.48L39,11.58a.23.23,0,0,1-.11,0,1.41,1.41,0,0,0-.27,0c-.69.14-1.42.27-2.1.41-1.12.21-2.24.43-3.33.66l-.21.05a1,1,0,0,0-.21.05s-.05,0-.07,0C19.2,16.21,8,20.73.05,26V59.6c0,4.58,3.62,7,8.21,7H174.1c4.6,0,8.32-2.48,8.32-7.07V24.31C182,24.06,181.6,23.8,181.16,23.55ZM32.22,33.47c0,.36-.21.57-.43.57s-.3-.16-.36-.78l-.05-.46c-.16-1.35-1.14-2.35-5.52-2.46l-5.74-.11v18.6c0,4.27,0,7.77.21,9.6.16,1.3.37,2.12,1.78,2.33a12.72,12.72,0,0,0,1.71.25.32.32,0,0,1,.36.36c0,.21-.21.37-.73.37-2.07,0-4.06-.14-5-.18l-.48,0-.48,0c-.89,0-2.4.18-4.49.18-.52,0-.73-.16-.73-.37A.33.33,0,0,1,12.7,61a8.87,8.87,0,0,0,1.25-.25c1.41-.21,1.6-1,1.76-2.33.21-1.83.21-5.33.21-9.6V30.23l-5.74.11c-4.38.11-5.36,1.1-5.52,2.46l-.05.46c-.05.62-.16.78-.36.78s-.43-.21-.43-.57c0-.52-.16-3.7-.16-5.06,0-.27,0-.52.21-.52s.62.11,1.3.2a22.42,22.42,0,0,0,3.3.21H27.59a22.32,22.32,0,0,0,3.28-.21c.68-.09,1.09-.2,1.3-.2s.21.25.21.52C32.38,29.76,32.22,33,32.22,33.47ZM55.11,60.56c-.3,1.14-.77,1.14-2.53,1.14-3.44,0-6.07-.11-7.94-.16s-3.1-.11-3.78-.11c-.11,0-1,0-2,.05s-1.92.11-2.64.11c-.48,0-.73-.11-.73-.36a.36.36,0,0,1,.36-.37,12.72,12.72,0,0,0,1.41-.21c.87-.14,1-1,1.19-2.33a93.23,93.23,0,0,0,.25-9.53V41c0-6.84,0-8.09-.09-9.48s-.37-2.24-1.87-2.44A14.37,14.37,0,0,0,35.21,29a.45.45,0,0,1-.37-.37c0-.25.21-.36.73-.36,2.07,0,5,.11,5.29.11s9.85.05,10.88,0a20.55,20.55,0,0,0,2.07-.27c.21,0,.43-.2.62-.2s.21.2.21.41a18.57,18.57,0,0,0-.36,2.08c-.05.41-.16,2.39-.27,2.9-.05.2-.21.46-.41.46s-.37-.21-.37-.57A5.13,5.13,0,0,0,53,31.61c-.32-.71-.78-1-3.28-1.34-.77-.11-6.06-.16-6.57-.16-.21,0-.27.16-.27.46v12c0,.3,0,.46.27.46.57,0,6.57,0,7.62-.11s1.76-.16,2.23-.62c.3-.3.52-.57.68-.57s.25.11.25.36-.25,1-.36,2.44c-.11.89-.21,2.55-.21,2.85s-.11.84-.41.84-.3-.16-.3-.41a3.81,3.81,0,0,0-.21-1.46c-.16-.62-.57-1.14-2.33-1.35-1.25-.14-6.13-.2-6.89-.2-.27,0-.32.14-.32.3v3.69c0,1.5-.05,6.64,0,7.52.11,3,.94,3.53,5.45,3.53a15.3,15.3,0,0,0,4.56-.46c1.19-.52,1.82-1.3,2.07-3.06.11-.52.21-.68.48-.68s.3.36.3.68A35.52,35.52,0,0,1,55.11,60.56Zm64.32,1.14h-2.85c-2.58,0-3.72-.27-4.86-.89-2-1-3.63-3.15-6.23-6.48-1.91-2.39-6.29-7.71-6.39-8.23a8.89,8.89,0,0,0,3.49-.78c1.57-1,2.76-3.37,2.76-6.75,0-5.49-3-8.66-7.89-8.66a19.28,19.28,0,0,0-3.26.27.56.56,0,0,0-.37.52S93.86,57,94,58.42s.41,2.14,1.82,2.33a16.08,16.08,0,0,0,2,.21.32.32,0,0,1,.36.36c0,.21-.21.37-.73.37-1.83,0-3.88-.09-4.93-.14a1.82,1.82,0,0,1-.94.14H88.77l-.71,0-.68,0a1.55,1.55,0,0,1-.45-.07,6.82,6.82,0,0,1-3-.82c-2-1-3.63-3.15-6.22-6.48-1.92-2.39-6.31-7.71-6.39-8.23a9,9,0,0,0,3.49-.78c1.55-1,2.74-3.37,2.74-6.75,0-5.49-3-8.66-7.87-8.66a19.36,19.36,0,0,0-3.28.27.57.57,0,0,0-.36.52s0,26.31.2,27.73.43,2.14,1.82,2.33a16.42,16.42,0,0,0,2,.21.32.32,0,0,1,.36.36c0,.21-.2.37-.71.37-2.49,0-5.4-.16-5.61-.16-.05,0-3.12.16-4.51.16-.46,0-.73-.11-.73-.37a.36.36,0,0,1,.37-.36,6.24,6.24,0,0,0,1.39-.21c.89-.2,1-1,1.19-2.33a87.23,87.23,0,0,0,.27-9.53V41.11c0-6.84,0-8.09-.11-9.49s-.37-2.23-1.87-2.42a14.13,14.13,0,0,0-1.55-.11.45.45,0,0,1-.37-.37c0-.25.21-.36.73-.36,2.07,0,5.13.11,5.4.11.46,0,4.29-.11,5.7-.11,2.9,0,6.13.27,8.5,1.92a7.71,7.71,0,0,1,3.17,6c0,3.28-1.35,6.43-5.59,10.06C79.79,51,83,55,85.6,57.76a11.4,11.4,0,0,0,3.46,2.6,4.33,4.33,0,0,0,.57-1.94,93.43,93.43,0,0,0,.25-9.53V41.11c0-6.84,0-8.09-.11-9.49s-.36-2.23-1.87-2.42a13.82,13.82,0,0,0-1.55-.11.46.46,0,0,1-.36-.37c0-.25.21-.36.73-.36,2.07,0,5.13.11,5.38.11.48,0,4.31-.11,5.72-.11,2.9,0,6.11.27,8.5,1.92a7.71,7.71,0,0,1,3.17,6c0,3.28-1.35,6.43-5.61,10.06,3.74,4.67,6.89,8.66,9.55,11.42,2.44,2.48,3.94,2.89,5.08,3a8.22,8.22,0,0,0,1.6.16.41.41,0,0,1,.43.36C120.53,61.59,120.26,61.7,119.42,61.7Zm12.75,0c-12.5,0-17.85-9.39-17.85-17.31,0-7.11,5.5-17.22,18.1-17.22,10.28,0,18,6.27,18,16.55C150.47,53.56,143.17,61.7,132.18,61.7Zm45.88.27c-.66,0-3.58,0-6.61-.05-.84-.05-1.3-.05-1.3-.3s.12-.27.28-.32.53-.48.27-1.18l-4.15-10.83a.39.39,0,0,0-.39-.27h-9.64a.49.49,0,0,0-.45.36l-2.62,7.77a9.36,9.36,0,0,0-.62,2.94c0,.87.93,1.26,1.67,1.26h.43c.32,0,.45.09.45.27s-.27.36-.66.36c-1.05,0-2.94-.14-3.42-.14s-2.89.14-5,.14c-.57,0-.84-.09-.84-.36s.18-.27.39-.27a10.83,10.83,0,0,0,1.28-.09c2-.27,2.89-1.92,3.69-4.11l9.94-27.23c.53-1.44.71-1.71,1-1.71s.43.21,1,1.59c.66,1.66,7.53,19.77,10.21,26.43,1.59,3.9,2.85,4.61,3.78,4.88a5.79,5.79,0,0,0,1.76.25c.25,0,.43.05.43.27S178.54,62,178.06,62Zm-18.33-36.8c0-.12.09-.21.3-.36,1.59-1.09,5.66-3.54,6-3.72.75-.43,1-.57,1.23-.57s.21.09.43.39.62,1.07,1.1,1.94c.21.39,0,.52-.18.52a5.71,5.71,0,0,0-1.32,0,28.3,28.3,0,0,0-6.66,1.85,2.83,2.83,0,0,1-.66.21A.24.24,0,0,1,159.73,25.17Zm1.66,10.13c-.21-.66-.43-.66-.66,0l-3.85,11.84c-.09.21,0,.3.12.3h8.57c.23,0,.23-.12.18-.3Zm-29.21-6.48c-7.62,0-13.11,4.77-13.11,14.37,0,10.26,6.16,16.69,14.39,16.69,4.1,0,12.34-2.17,12.34-14.94C145.8,34.38,139.37,28.82,132.18,28.82Zm0,0c-7.62,0-13.11,4.77-13.11,14.37,0,10.26,6.16,16.69,14.39,16.69,4.1,0,12.34-2.17,12.34-14.94C145.8,34.38,139.37,28.82,132.18,28.82Zm33.57,18.33L161.39,35.3c-.21-.66-.43-.66-.66,0l-3.85,11.84c-.09.21,0,.3.12.3h8.57C165.8,47.45,165.8,47.32,165.75,47.15Zm0,0L161.39,35.3c-.21-.66-.43-.66-.66,0l-3.85,11.84c-.09.21,0,.3.12.3h8.57C165.8,47.45,165.8,47.32,165.75,47.15ZM132.18,28.82c-7.62,0-13.11,4.77-13.11,14.37,0,10.26,6.16,16.69,14.39,16.69,4.1,0,12.34-2.17,12.34-14.94C145.8,34.38,139.37,28.82,132.18,28.82Zm0,0c-7.62,0-13.11,4.77-13.11,14.37,0,10.26,6.16,16.69,14.39,16.69,4.1,0,12.34-2.17,12.34-14.94C145.8,34.38,139.37,28.82,132.18,28.82Zm33.57,18.33L161.39,35.3c-.21-.66-.43-.66-.66,0l-3.85,11.84c-.09.21,0,.3.12.3h8.57C165.8,47.45,165.8,47.32,165.75,47.15Zm0,0L161.39,35.3c-.21-.66-.43-.66-.66,0l-3.85,11.84c-.09.21,0,.3.12.3h8.57C165.8,47.45,165.8,47.32,165.75,47.15ZM132.18,28.82c-7.62,0-13.11,4.77-13.11,14.37,0,10.26,6.16,16.69,14.39,16.69,4.1,0,12.34-2.17,12.34-14.94C145.8,34.38,139.37,28.82,132.18,28.82Zm0,0c-7.62,0-13.11,4.77-13.11,14.37,0,10.26,6.16,16.69,14.39,16.69,4.1,0,12.34-2.17,12.34-14.94C145.8,34.38,139.37,28.82,132.18,28.82Zm33.57,18.33L161.39,35.3c-.21-.66-.43-.66-.66,0l-3.85,11.84c-.09.21,0,.3.12.3h8.57C165.8,47.45,165.8,47.32,165.75,47.15Zm0,0L161.39,35.3c-.21-.66-.43-.66-.66,0l-3.85,11.84c-.09.21,0,.3.12.3h8.57C165.8,47.45,165.8,47.32,165.75,47.15ZM132.18,28.82c-7.62,0-13.11,4.77-13.11,14.37,0,10.26,6.16,16.69,14.39,16.69,4.1,0,12.34-2.17,12.34-14.94C145.8,34.38,139.37,28.82,132.18,28.82Zm0,0c-7.62,0-13.11,4.77-13.11,14.37,0,10.26,6.16,16.69,14.39,16.69,4.1,0,12.34-2.17,12.34-14.94C145.8,34.38,139.37,28.82,132.18,28.82Zm33.57,18.33L161.39,35.3c-.21-.66-.43-.66-.66,0l-3.85,11.84c-.09.21,0,.3.12.3h8.57C165.8,47.45,165.8,47.32,165.75,47.15Zm0,0L161.39,35.3c-.21-.66-.43-.66-.66,0l-3.85,11.84c-.09.21,0,.3.12.3h8.57C165.8,47.45,165.8,47.32,165.75,47.15ZM132.18,28.82c-7.62,0-13.11,4.77-13.11,14.37,0,10.26,6.16,16.69,14.39,16.69,4.1,0,12.34-2.17,12.34-14.94C145.8,34.38,139.37,28.82,132.18,28.82Zm0,0c-7.62,0-13.11,4.77-13.11,14.37,0,10.26,6.16,16.69,14.39,16.69,4.1,0,12.34-2.17,12.34-14.94C145.8,34.38,139.37,28.82,132.18,28.82Zm33.57,18.33L161.39,35.3c-.21-.66-.43-.66-.66,0l-3.85,11.84c-.09.21,0,.3.12.3h8.57C165.8,47.45,165.8,47.32,165.75,47.15Zm0,0L161.39,35.3c-.21-.66-.43-.66-.66,0l-3.85,11.84c-.09.21,0,.3.12.3h8.57C165.8,47.45,165.8,47.32,165.75,47.15ZM132.18,28.82c-7.62,0-13.11,4.77-13.11,14.37,0,10.26,6.16,16.69,14.39,16.69,4.1,0,12.34-2.17,12.34-14.94C145.8,34.38,139.37,28.82,132.18,28.82Zm0,0c-7.62,0-13.11,4.77-13.11,14.37,0,10.26,6.16,16.69,14.39,16.69,4.1,0,12.34-2.17,12.34-14.94C145.8,34.38,139.37,28.82,132.18,28.82Zm0,0c-7.62,0-13.11,4.77-13.11,14.37,0,10.26,6.16,16.69,14.39,16.69,4.1,0,12.34-2.17,12.34-14.94C145.8,34.38,139.37,28.82,132.18,28.82Z"/><path class="cls-1" d="M91.3,6.18a249.76,249.76,0,0,1,54.79,5.74l-1.71-.21-.37-.05a1.41,1.41,0,0,1-.27,0c-6.79-.84-14.11-1.41-21.84-1.78-9.67-.46-20-.64-30.67-.64s-21,.18-30.64.64c-7.62.37-14.85.93-21.55,1.75a.23.23,0,0,1-.11,0,1.41,1.41,0,0,0-.27,0c-.68.07-1.35.16-2,.25A250,250,0,0,1,91.3,6.18Z"/><path class="cls-1" d="M182.42,8.35V23.49c-16-11.84-50.78-20.06-91.12-20.06S16.07,11.65.05,23.49L0,8.42A8.32,8.32,0,0,1,8.21,0H174.1A8.36,8.36,0,0,1,182.42,8.35Z"/><path class="cls-1" d="M148.9,12.59l-3.83-.75a2.33,2.33,0,0,1-.34-.07c-.25,0-.48-.07-.73-.12a1.41,1.41,0,0,1-.27,0c-.94-.18-1.89-.34-2.85-.5s-2.1-.34-3.17-.5c-.57-.09-1.14-.18-1.71-.25-2.89-.43-5.88-.82-8.92-1.16-.93-.11-1.89-.21-2.83-.3-2.46-.25-5-.48-7.5-.66q-1.9-.16-3.85-.27c-1.3-.09-2.58-.18-3.9-.23q-1.71-.11-3.47-.16c-1-.05-2-.09-3-.12-1.21,0-2.46-.07-3.69-.09-1.07,0-2.14-.05-3.22-.05-.71,0-1.42,0-2.14,0s-1.42,0-2.14,0c-1.5,0-3,0-4.45,0h-.68c-1.5,0-3,.05-4.45.11-.23,0-.46,0-.68,0-.93,0-1.83.05-2.72.09a3.45,3.45,0,0,0-.43,0c-.8,0-1.59.05-2.37.11-1.6.05-3.17.14-4.74.25s-3.13.2-4.67.32c-.78.05-1.55.11-2.3.18s-1.51.12-2.26.2c-1.51.14-3,.28-4.49.45l-2.46.27c-1.35.16-2.71.32-4,.5-1.64.21-3.26.43-4.84.68-1.05.14-2.08.32-3.12.48L39,11.58a.23.23,0,0,1-.11,0L36.57,12c-1.12.21-2.24.43-3.33.66,1.09-.27,2.17-.55,3.29-.8l.12,0A250,250,0,0,1,91.3,6.18a249.76,249.76,0,0,1,54.79,5.74l.07,0C147.08,12.13,148,12.34,148.9,12.59Z"/><path class="cls-1" d="M.06,23.49"/><path class="cls-1" d="M17.56,77.5c0,.09-.11.87-.16,1.1s-.18.3-.64.3c-.87,0-1.53,0-2,0l-.91,0-.48,0-.68,0c-.12,0-.2,0-.2-.09s0-.07.11-.07a1.21,1.21,0,0,0,.34-.05c.25,0,.3-.28.36-.62s.05-1.37.05-2.48v-2c0-1.76,0-2.08,0-2.46s-.12-.57-.52-.64a1.39,1.39,0,0,0-.39,0c-.05,0-.11,0-.11-.07s.07-.09.2-.09h.85l.48,0c.07,0,2.42,0,2.69,0l.52-.05c.05,0,.11-.07.16-.07s.05.05.05.11-.07.21-.11.55a5.67,5.67,0,0,1-.05.75c0,.05,0,.12-.07.12s-.11-.07-.11-.16a1,1,0,0,0-.07-.41c-.07-.18-.2-.3-.84-.37-.2,0-1.48,0-1.6,0s-.07,0-.07.11V74c0,.07,0,.11.07.11s1.6,0,1.87,0a.81.81,0,0,0,.55-.16c.09-.09.12-.14.18-.14s.05,0,.05.09-.05.27-.09.64c0,.21-.05.64-.05.73s0,.21-.07.21-.09-.05-.09-.11a1,1,0,0,0-.05-.37c0-.16-.14-.36-.61-.39s-1.5-.07-1.69-.07-.07,0-.07.09v1c0,.39,0,1.71,0,2,0,.78.2.93,1.35.93a3.5,3.5,0,0,0,1.14-.12c.3-.12.45-.36.53-.82,0-.12,0-.18.11-.18S17.56,77.43,17.56,77.5Z"/><path class="cls-1" d="M40.52,72.88a2.4,2.4,0,0,0-.66-1.76,2.11,2.11,0,0,0-1.6-.57,1.78,1.78,0,0,0-.52.07c-.07,0-.09.11-.09.21v4.7c0,1.09,0,2,.05,2.48,0,.32.11.57.46.62l.53,0c.07,0,.09,0,.09.07a.17.17,0,0,1-.18.16c-.66,0-1.41-.05-1.48-.05s-.77.05-1.12.05a.16.16,0,0,1-.18-.16s0-.07.09-.07a2.43,2.43,0,0,0,.36,0c.23-.05.3-.3.34-.62a22.3,22.3,0,0,0,.07-2.48v-2c0-1.78,0-2.1,0-2.46s-.11-.57-.5-.66l-.41,0s-.09,0-.09-.07a.16.16,0,0,1,.18-.16c.53,0,1.26.05,1.35.05l1.48,0a2.89,2.89,0,0,1,2.19.66,1.89,1.89,0,0,1,.59,1.35,2.69,2.69,0,0,1-2.9,2.71h-.25c-.05,0-.12,0-.12-.09s.07-.11.32-.11A1.92,1.92,0,0,0,40.52,72.88Z"/><path class="cls-1" d="M62.66,77.5c0,.09-.11.87-.16,1.1s-.18.3-.64.3c-.87,0-1.53,0-2,0l-.91,0-.48,0c-.23,0-.5.05-.68.05s-.2-.05-.2-.12,0-.07.09-.07a1.23,1.23,0,0,0,.36-.05c.25,0,.3-.28.36-.62s.05-1.37.05-2.48v-2c0-1.76,0-2.08,0-2.46s-.11-.57-.5-.64a1.52,1.52,0,0,0-.41,0s-.09,0-.09-.07.05-.09.2-.09h.84l.5,0c.07,0,2.42,0,2.69,0l.52-.05c.05,0,.11-.07.16-.07s.05.05.05.11-.07.23-.11.55c0,.11,0,.61-.05.75s0,.12-.09.12S62,71.6,62,71.51A1.4,1.4,0,0,0,62,71.1c-.09-.18-.2-.3-.84-.37-.2,0-1.48,0-1.62,0s-.07,0-.07.11V74c0,.07,0,.11.07.11s1.62,0,1.89,0a.81.81,0,0,0,.55-.16c.07-.09.12-.14.18-.14s.05,0,.05.09-.05.27-.09.64a6.63,6.63,0,0,0-.05.73c0,.09,0,.21-.07.21s-.09-.05-.09-.11a1,1,0,0,0-.05-.37c0-.16-.14-.36-.61-.39s-1.5-.07-1.69-.07a.08.08,0,0,0-.09.09v3c0,.78.21.93,1.37.93a3.5,3.5,0,0,0,1.14-.12c.3-.12.45-.36.53-.82,0-.12,0-.18.11-.18S62.66,77.43,62.66,77.5Z"/><path class="cls-1" d="M71.17,77.5c0,.09-.09.87-.14,1.1s-.18.3-.64.3c-.89,0-1.53,0-2,0l-.93,0-.46,0c-.23,0-.5.05-.68.05s-.2-.05-.2-.12,0-.07.09-.07a1.23,1.23,0,0,0,.36-.05c.23,0,.3-.28.34-.62A22.13,22.13,0,0,0,67,75.55v-2c0-1.76,0-2.08,0-2.46s-.11-.57-.5-.64a1.52,1.52,0,0,0-.41,0s-.09,0-.09-.07.05-.09.2-.09H67l.48,0c.09,0,2.44,0,2.71,0l.52-.05c.05,0,.11-.07.16-.07s.05.05.05.11-.07.23-.11.55c0,.11,0,.61-.05.75s0,.12-.09.12-.09-.07-.09-.16a1.4,1.4,0,0,0-.07-.41c-.09-.18-.2-.3-.84-.37-.2,0-1.48,0-1.62,0s-.07,0-.07.11V74c0,.07,0,.11.07.11s1.6,0,1.89,0a.84.84,0,0,0,.55-.16c.07-.09.12-.14.18-.14s.05,0,.05.09-.05.27-.09.64a6.62,6.62,0,0,0-.05.73c0,.09,0,.21-.09.21s-.07-.05-.07-.11a1,1,0,0,0-.05-.37c-.05-.16-.16-.36-.61-.39s-1.5-.07-1.69-.07a.08.08,0,0,0-.09.09v3c0,.78.21.93,1.37.93a3.61,3.61,0,0,0,1.14-.12c.3-.12.45-.36.53-.82,0-.12,0-.18.09-.18S71.17,77.43,71.17,77.5Z"/><path class="cls-1" d="M84,70.34s0,.07-.12.07a1.06,1.06,0,0,0-.28,0c-.39.09-.43.34-.43,1l0,6.7c0,.75,0,.75-.11.75s-.23-.07-.85-.68c-.12-.11-1.83-1.8-3.08-3.1S76.36,72.28,76,71.87l.16,5.45c0,.94.14,1.25.46,1.34a2.86,2.86,0,0,0,.59.07c.05,0,.09,0,.09.05s-.07.12-.21.12c-.68,0-1.14-.05-1.25-.05s-.61.05-1.12.05c-.12,0-.2,0-.2-.12s0-.05.09-.05a1.84,1.84,0,0,0,.48-.07c.3-.09.36-.41.36-1.46l0-6.54c0-.45,0-.52.12-.52s.3.2.41.32,1.94,2,3.76,3.92c1.16,1.19,2.46,2.6,2.83,3l-.12-5.81c0-.73-.11-1-.46-1.07a2.89,2.89,0,0,0-.59-.07c-.07,0-.09,0-.09-.07s.09-.09.23-.09c.53,0,1.1,0,1.23,0s.52,0,1,0C83.89,70.25,84,70.26,84,70.34Z"/><path class="cls-1" d="M95.11,71.46c-1.41-1.39-3.56-1.3-4.72-1.3-.71,0-1.46,0-1.6,0s-.8,0-1.34,0c-.12,0-.18,0-.18.09s0,.07.09.07l.41,0c.37.09.48.27.5.66s0,.68,0,2.46v2A22.34,22.34,0,0,1,88.24,78c0,.32-.11.57-.34.62a2.39,2.39,0,0,1-.36,0c-.07,0-.09,0-.09.07s.05.21.18.21.45-.09.68-.09l.48,0c.07,0,.46,0,1,0s1.14.09,1.64.09A4.85,4.85,0,0,0,95,77.59a4.6,4.6,0,0,0,1.26-3.22A4.06,4.06,0,0,0,95.11,71.46Zm-.85,6a4,4,0,0,1-2.81,1.05c-1.39,0-1.85-.23-2-.45a2.28,2.28,0,0,1-.14-.87c0-.21,0-1.26,0-2.48V73.29c0-.89,0-2,0-2.44,0-.12,0-.18.14-.21a2.81,2.81,0,0,1,.77-.09,4.94,4.94,0,0,1,3.85,1.28,4,4,0,0,1,1.14,2.89A4,4,0,0,1,94.26,77.44Z"/><path class="cls-1" d="M102.59,78.74a.2.2,0,0,1-.2.16c-.66,0-1.41-.05-1.48-.05s-.78.05-1.12.05c-.14,0-.2-.09-.2-.16s0-.07.09-.07a2.43,2.43,0,0,0,.36,0c.23-.05.3-.3.34-.62.05-.48.05-1.39.05-2.48v-2c0-1.78,0-2.1,0-2.48s-.14-.57-.39-.62a1.7,1.7,0,0,0-.37-.05s-.09,0-.09-.07.05-.16.2-.16c.37,0,1.16.07,1.21.07s.77-.07,1.12-.07c.14,0,.2.09.2.16s-.05.07-.09.07a2.73,2.73,0,0,0-.3,0c-.32.05-.41.25-.45.64s0,.69,0,2.48v2a22.27,22.27,0,0,0,.07,2.48c0,.32.09.57.45.62l.53,0C102.56,78.67,102.59,78.71,102.59,78.74Z"/><path class="cls-1" d="M125.91,77.5c0,.09-.09.87-.14,1.1s-.18.3-.64.3c-.89,0-1.53,0-2,0l-.93,0-.46,0c-.25,0-.52.05-.69.05s-.18-.05-.18-.12,0-.07.09-.07a1.23,1.23,0,0,0,.36-.05c.23,0,.28-.28.34-.62s.05-1.37.05-2.48v-2c0-1.76,0-2.08,0-2.46s-.12-.57-.5-.64a1.58,1.58,0,0,0-.41,0,.08.08,0,0,1-.09-.07c0-.07.05-.09.18-.09h.85l.48,0c.09,0,2.44,0,2.71,0l.5-.05c.07,0,.11-.07.18-.07s0,.05,0,.11-.05.23-.09.55c0,.11,0,.61-.05.75s0,.12-.09.12-.09-.07-.09-.16a1.4,1.4,0,0,0-.07-.41c-.09-.18-.2-.3-.84-.37-.21,0-1.5,0-1.62,0s-.07,0-.07.11V74c0,.07,0,.11.07.11s1.6,0,1.87,0a.81.81,0,0,0,.55-.16c.09-.09.14-.14.18-.14s.07,0,.07.09-.07.27-.11.64c0,.21,0,.64,0,.73s0,.21-.09.21a.1.1,0,0,1-.09-.11,1.46,1.46,0,0,0,0-.37c-.05-.16-.16-.36-.62-.39s-1.48-.07-1.67-.07-.09,0-.09.09v1c0,.39,0,1.71,0,2,0,.78.21.93,1.37.93a3.45,3.45,0,0,0,1.12-.12c.32-.12.45-.36.53-.82,0-.12.05-.18.11-.18S125.91,77.43,125.91,77.5Z"/><path class="cls-1" d="M138.7,70.34s-.05.07-.12.07a1,1,0,0,0-.28,0c-.39.09-.45.34-.45,1l0,6.7c0,.75,0,.75-.11.75s-.23-.07-.86-.68c-.12-.11-1.83-1.8-3.08-3.1s-2.71-2.85-3.08-3.26l.16,5.45c0,.94.14,1.25.46,1.34a2.86,2.86,0,0,0,.59.07c.05,0,.09,0,.09.05s-.07.12-.21.12c-.68,0-1.14-.05-1.25-.05s-.61.05-1.14.05c-.11,0-.18,0-.18-.12s0-.05.09-.05a1.94,1.94,0,0,0,.48-.07c.3-.09.36-.41.36-1.46l0-6.54c0-.45,0-.52.12-.52s.28.2.41.32,1.94,2,3.76,3.92c1.16,1.19,2.46,2.6,2.83,3l-.14-5.81c0-.73-.09-1-.45-1.07a3,3,0,0,0-.59-.07c-.09,0-.09,0-.09-.07s.09-.09.23-.09c.53,0,1.1,0,1.23,0s.52,0,1,0C138.61,70.25,138.7,70.26,138.7,70.34Z"/><path class="cls-1" d="M157.66,70.14A4.42,4.42,0,0,0,153,74.52a4.27,4.27,0,0,0,4.58,4.38,4.47,4.47,0,0,0,4.7-4.58C162.3,71.67,160.32,70.14,157.66,70.14Zm.25,8.42c-2.12,0-3.78-1.71-3.78-4.36s1.48-3.76,3.44-3.76,3.58,1.46,3.58,4.2C161.16,78,159,78.56,157.91,78.56Z"/><path class="cls-1" d="M170.15,76.62a2.36,2.36,0,0,1-1,1.91,3.13,3.13,0,0,1-1.78.37,3.65,3.65,0,0,1-1.59-.21c-.16-.07-.16-.12-.16-.43,0-.57,0-1,.05-1.21s0-.18.09-.18.09,0,.09.12a2,2,0,0,0,0,.43,1.6,1.6,0,0,0,1.75,1.16,1.56,1.56,0,0,0,1.69-1.51c0-.78-.36-1.25-1.35-2.07l-.53-.41c-1.26-1-1.53-1.71-1.53-2.48,0-1.23.93-2,2.44-2a4.92,4.92,0,0,1,1.1.09,1.24,1.24,0,0,0,.41,0c.09,0,.11.11.11.16a8.55,8.55,0,0,0-.05,1.09c0,.2,0,.27-.07.27s-.09-.05-.11-.14a1.58,1.58,0,0,0-.14-.57c-.07-.12-.39-.61-1.48-.61a1.31,1.31,0,0,0-1.44,1.32c0,.66.3,1.07,1.43,1.92l.34.25C169.81,75,170.15,75.72,170.15,76.62Z"/><path class="cls-1" d="M54.13,78.8c0,.07-.07.11-.3.11h-.77a2.66,2.66,0,0,1-1.34-.23A6.05,6.05,0,0,1,50,77c-.53-.62-1.71-2-1.75-2.15a2.22,2.22,0,0,0,.94-.21A2,2,0,0,0,50,72.83a2,2,0,0,0-2.14-2.28,7,7,0,0,0-.89.07.16.16,0,0,0-.09.14s0,6.91.05,7.28.11.55.5.61a3.19,3.19,0,0,0,.55.05.08.08,0,0,1,.09.09c0,.05-.05.11-.2.11-.68,0-1.46-.05-1.51-.05s-.85.05-1.23.05c-.12,0-.2,0-.2-.11a.08.08,0,0,1,.09-.09,1.48,1.48,0,0,0,.39-.05c.23-.05.27-.27.32-.61a22.74,22.74,0,0,0,.07-2.51v-2c0-1.8,0-2.14,0-2.49s-.09-.59-.5-.64l-.43,0a.11.11,0,0,1-.09-.09c0-.07.05-.11.2-.11.55,0,1.39,0,1.46,0l1.55,0a4.2,4.2,0,0,1,2.3.5,2,2,0,0,1,.85,1.57,3.34,3.34,0,0,1-1.51,2.65c1,1.21,1.87,2.26,2.6,3a2.27,2.27,0,0,0,1.37.8,2.55,2.55,0,0,0,.43,0A.12.12,0,0,1,54.13,78.8Z"/><path class="cls-1" d="M117.38,78.8c0,.07-.07.11-.2.11l-1.21,0-1.39,0c-.14,0-.21,0-.21-.11s.05-.05.11-.05a3.12,3.12,0,0,0,.45-.05.4.4,0,0,0,.34-.34c0-.09,0-.16,0-.23l-.55-5.75h0l-2.89,5.93c-.25.5-.28.61-.39.61s-.14-.12-.37-.53-1.32-2.53-1.37-2.64-1.42-3-1.55-3.26H108l-.48,5.29v.59a.38.38,0,0,0,.3.36,3.11,3.11,0,0,0,.45.05c.05,0,.09,0,.09.05s-.07.09-.2.09l-1.1,0-1,0c-.11,0-.2,0-.2-.09s.05-.05.12-.05a1.43,1.43,0,0,0,.34,0c.39-.07.43-.52.48-.94l.85-7.45c0-.12.05-.2.12-.2s.12,0,.18.16l3.62,7.18,3.46-7.16c.05-.11.09-.18.18-.18s.12.09.14.3l.78,7a2.6,2.6,0,0,0,.14.68.87.87,0,0,0,.61.59l.36,0C117.32,78.73,117.38,78.76,117.38,78.8Z"/><path class="cls-1" d="M149.7,70.26c0,.36,0,1.18,0,1.32s-.05.14-.11.14-.09,0-.11-.2V71.4c-.05-.36-.32-.61-1.5-.64l-1.53,0v4.83c0,1.1,0,2,.05,2.49s.11.55.48.61a3.37,3.37,0,0,0,.55.05c.09,0,.11.05.11.09s-.07.09-.2.09l-1.44,0h-.25l-1.44,0c-.12,0-.2,0-.2-.09s0-.09.11-.09a3.37,3.37,0,0,0,.55-.05c.39-.05.45-.27.48-.61s.05-1.39.05-2.49V70.75l-1.53,0c-1.18,0-1.44.28-1.48.64l0,.12c0,.16-.05.2-.11.2s-.11-.05-.11-.14,0-1,0-1.32c0-.07,0-.12.05-.12l.34.05a8.41,8.41,0,0,0,.89.05h5.13a8.41,8.41,0,0,0,.89-.05l.34-.05C149.7,70.14,149.7,70.19,149.7,70.26Z"/><path class="cls-1" d="M32.35,78.8c0,.07-.07.11-.2.11l-1.21,0-1.39,0c-.14,0-.21,0-.21-.11s.05-.05.11-.05a3.13,3.13,0,0,0,.45-.05.4.4,0,0,0,.34-.34.94.94,0,0,0,0-.23l-.55-5.75h0L26.73,78.3c-.25.5-.29.61-.39.61s-.14-.12-.36-.53-1.34-2.53-1.39-2.64-1.42-3-1.55-3.26H23l-.48,5.29v.59a.38.38,0,0,0,.3.36,3.11,3.11,0,0,0,.45.05c.05,0,.09,0,.09.05s-.05.09-.2.09l-1.1,0-1,0c-.11,0-.2,0-.2-.09s.05-.05.12-.05a1.56,1.56,0,0,0,.36,0c.37-.07.41-.52.46-.94l.86-7.45c0-.12.05-.2.12-.2s.12,0,.18.16l3.62,7.18L30,70.32c.05-.11.11-.18.18-.18s.12.09.14.3l.8,7a2.25,2.25,0,0,0,.12.68.87.87,0,0,0,.61.59l.36,0C32.29,78.73,32.35,78.76,32.35,78.8Z"/></g></g></g></g></g></svg>